<?xml version="1.0" standalone="no"?>
<!DOCTYPE svg PUBLIC "-//W3C//DTD SVG 20010904//EN"
 "http://www.w3.org/TR/2001/REC-SVG-20010904/DTD/svg10.dtd">
<svg version="1.0" xmlns="http://www.w3.org/2000/svg"
 width="128.000000pt" height="128.000000pt" viewBox="0 0 128.000000 128.000000"
 preserveAspectRatio="xMidYMid meet">

<g transform="translate(0.000000,128.000000) scale(0.100000,-0.100000)"
fill="#000000" stroke="none">
<path d="M515 1266 c-237 -56 -409 -210 -482 -430 -22 -69 -27 -98 -27 -196 0
-98 5 -127 27 -196 66 -198 225 -353 427 -416 109 -34 264 -32 376 5 194 64
347 217 411 411 22 69 27 98 27 196 0 98 -5 127 -27 196 -84 255 -312 427
-582 440 -56 2 -112 -1 -150 -10z m163 -338 c8 -8 12 -49 12 -119 l0 -107 111
-4 c96 -3 113 -6 125 -22 19 -27 18 -42 -6 -66 -17 -17 -33 -20 -125 -20
l-105 0 0 -108 c0 -116 -6 -132 -50 -132 -44 0 -50 16 -50 132 l0 108 -105 0
c-92 0 -108 3 -125 20 -24 24 -25 39 -6 66 12 16 29 19 125 22 l111 4 0 107
c0 70 4 111 12 119 15 15 61 15 76 0z"/>
</g>
</svg>
