<svg xmlns="http://www.w3.org/2000/svg" viewBox="0 0 750 500"><g id="freepik--background-complete--inject-97"><rect x="498.14" y="60.22" width="141.76" height="254.66" style="fill:#ebebeb"></rect><rect x="503.8" y="67.6" width="128.97" height="239.69" style="fill:#fafafa"></rect><polygon points="645.89 317.17 639.9 314.88 639.9 55.9 645.89 55.9 645.89 317.17" style="fill:#e0e0e0"></polygon><path d="M535.42,222.43l33.49-31.14c4.25-3.94,9.8-8.19,15.25-6.25,2.63.94,4.61,3.18,7.18,4.25,5.14,2.15,11-.95,15-4.87s7.07-8.83,11.86-11.68,12.24-2.48,14.6,2.56v33.88L584.1,230Z" style="fill:#f5f5f5"></path><path d="M503.8,203c12.35-5,24.66-.75,33.5,9.23,1.86,2.1,3.55,4.52,6.1,5.68,3.46,1.57,7.46.4,11.24,0a28.23,28.23,0,0,1,26.56,12.88L540,251l-36.19-.26Z" style="fill:#e0e0e0"></path><path d="M632.77,203.12c-8.13-3.93-15.28.82-22.78,5.85s-14.47,11.47-23.27,13.49c-5.88,1.36-12.17.61-17.86,2.63-11.57,4.12-18.27,18.82-30.54,19.52-6.66.38-12.63-3.65-18.58-6.68s-10.63-5.91-15.94-1.86v71.22h129Z" style="fill:#ebebeb"></path><rect x="503.8" y="136.55" width="131.77" height="2.55" style="fill:#e0e0e0"></rect><rect x="503.8" y="193.63" width="131.77" height="2.55" style="fill:#e0e0e0"></rect><rect x="503.8" y="250.71" width="131.77" height="2.55" style="fill:#e0e0e0"></rect><rect x="480.16" y="222.7" width="176.26" height="6.52" transform="translate(342.33 794.25) rotate(-90)" style="fill:#e0e0e0"></rect><rect x="528.64" y="67.6" width="2.95" height="70.23" style="fill:#e0e0e0"></rect><rect x="554.1" y="67.6" width="2.95" height="70.23" style="fill:#e0e0e0"></rect><rect x="579.56" y="67.6" width="2.95" height="70.23" style="fill:#e0e0e0"></rect><rect x="605.02" y="67.6" width="2.95" height="70.23" style="fill:#e0e0e0"></rect><rect x="492.14" y="55.9" width="6" height="260.55" style="fill:#e0e0e0"></rect><rect x="492.14" y="53.27" width="153.75" height="6.95" style="fill:#e0e0e0"></rect><rect x="487.89" y="318.03" width="162.06" height="6.47" style="fill:#e0e0e0"></rect><polygon points="639.9 314.88 649.95 318.03 487.89 318.03 498.14 314.88 639.9 314.88" style="fill:#e0e0e0"></polygon><rect x="98.86" y="62.57" width="141.76" height="254.66" style="fill:#ebebeb"></rect><rect x="104.52" y="69.95" width="128.97" height="239.69" style="fill:#fafafa"></rect><polygon points="246.61 319.52 240.61 317.23 240.61 58.25 246.61 58.25 246.61 319.52" style="fill:#e0e0e0"></polygon><path d="M136.14,224.78l33.49-31.13c4.25-4,9.79-8.2,15.25-6.25,2.63.93,4.6,3.17,7.18,4.24,5.14,2.15,11-.95,15-4.87s7.07-8.83,11.86-11.68,12.23-2.48,14.6,2.56v33.88l-48.68,20.84Z" style="fill:#f5f5f5"></path><path d="M104.52,205.3c12.34-5,24.66-.75,33.49,9.23,1.86,2.1,3.56,4.52,6.11,5.68,3.46,1.57,7.46.4,11.23,0a28.23,28.23,0,0,1,26.57,12.88l-41.21,20.26-36.19-.26Z" style="fill:#e0e0e0"></path><path d="M233.49,205.47c-8.13-3.92-15.29.83-22.79,5.85s-14.46,11.47-23.26,13.49c-5.88,1.36-12.18.61-17.86,2.63C158,231.56,151.31,246.26,139,247c-6.66.39-12.64-3.65-18.58-6.68s-10.64-5.91-15.94-1.86v71.22h129Z" style="fill:#ebebeb"></path><rect x="104.52" y="138.9" width="131.77" height="2.55" style="fill:#e0e0e0"></rect><rect x="104.52" y="195.98" width="131.77" height="2.55" style="fill:#e0e0e0"></rect><rect x="104.52" y="253.06" width="131.77" height="2.55" style="fill:#e0e0e0"></rect><rect x="80.88" y="225.05" width="176.26" height="6.52" transform="translate(-59.3 397.31) rotate(-90)" style="fill:#e0e0e0"></rect><rect x="129.35" y="69.95" width="2.95" height="70.23" style="fill:#e0e0e0"></rect><rect x="154.81" y="69.95" width="2.95" height="70.23" style="fill:#e0e0e0"></rect><rect x="180.27" y="69.95" width="2.95" height="70.23" style="fill:#e0e0e0"></rect><rect x="205.73" y="69.95" width="2.95" height="70.23" style="fill:#e0e0e0"></rect><rect x="92.86" y="58.25" width="6" height="260.55" style="fill:#e0e0e0"></rect><rect x="92.86" y="55.62" width="153.75" height="6.95" style="fill:#e0e0e0"></rect><rect x="88.61" y="320.38" width="162.06" height="6.47" style="fill:#e0e0e0"></rect><polygon points="240.61 317.23 250.67 320.38 88.61 320.38 98.86 317.23 240.61 317.23" style="fill:#e0e0e0"></polygon><rect x="95.48" y="370.35" width="14.78" height="88.68" style="fill:#e0e0e0"></rect><rect x="119.23" y="370.35" width="14.78" height="88.68" style="fill:#e0e0e0"></rect><rect x="142.98" y="370.35" width="14.78" height="88.68" style="fill:#e0e0e0"></rect><rect x="166.73" y="370.35" width="14.78" height="88.68" style="fill:#e0e0e0"></rect><rect x="190.49" y="370.35" width="14.78" height="88.68" style="fill:#e0e0e0"></rect><rect x="214.24" y="370.35" width="14.78" height="88.68" style="fill:#e0e0e0"></rect><rect x="237.99" y="370.35" width="14.78" height="88.68" style="fill:#e0e0e0"></rect><rect x="86.5" y="380.38" width="164.16" height="4.75" rx="1.42" style="fill:#e0e0e0"></rect><rect x="86.5" y="448.35" width="164.16" height="4.75" rx="1.42" style="fill:#e0e0e0"></rect><rect x="502.37" y="370.35" width="14.78" height="88.68" style="fill:#e0e0e0"></rect><rect x="526.13" y="370.35" width="14.78" height="88.68" style="fill:#e0e0e0"></rect><rect x="549.88" y="370.35" width="14.78" height="88.68" style="fill:#e0e0e0"></rect><rect x="573.63" y="370.35" width="14.78" height="88.68" style="fill:#e0e0e0"></rect><rect x="597.39" y="370.35" width="14.78" height="88.68" style="fill:#e0e0e0"></rect><rect x="621.14" y="370.35" width="14.78" height="88.68" style="fill:#e0e0e0"></rect><rect x="644.89" y="370.35" width="14.78" height="88.68" style="fill:#e0e0e0"></rect><rect x="493.4" y="380.38" width="164.16" height="4.75" rx="1.42" style="fill:#e0e0e0"></rect><rect x="493.4" y="448.35" width="164.16" height="4.75" rx="1.42" style="fill:#e0e0e0"></rect><rect x="316.11" y="94.28" width="96.36" height="63.36" style="fill:#e0e0e0"></rect><rect x="319.46" y="96.87" width="89.61" height="57.93" style="fill:#fafafa"></rect><rect x="349.65" y="117.99" width="29.23" height="15.94" style="fill:#e0e0e0"></rect><rect x="421.45" y="184.29" width="60.01" height="39.46" transform="translate(247.44 655.48) rotate(-90)" style="fill:#e0e0e0"></rect><rect x="423.48" y="186" width="55.81" height="36.08" transform="translate(247.35 655.42) rotate(-90)" style="fill:#fafafa"></rect><rect x="442.36" y="199.07" width="18.21" height="9.93" transform="translate(247.42 655.5) rotate(-90)" style="fill:#e0e0e0"></rect></g><g id="freepik--Floor--inject-97"><path d="M656.59,466.93c0,.14-129.3.26-288.76.26S79,467.07,79,466.93s129.27-.27,288.79-.27S656.59,466.78,656.59,466.93Z" style="fill:#263238"></path></g><g id="freepik--Character--inject-97"><polygon points="273.99 256.5 367.38 256.5 406.93 371.39 296.56 371.39 273.99 256.5" style="fill:#2684B5"></polygon><polygon points="273.99 256.5 367.38 256.5 406.93 371.39 296.56 371.39 273.99 256.5" style="opacity:0.30000000000000004"></polygon><polygon points="386.09 424.61 390.79 466.66 398.76 466.66 396.39 424.61 386.09 424.61" style="fill:#2684B5"></polygon><polygon points="386.15 425.13 396.56 425.37 396.94 431.92 386.74 430.25 386.15 425.13" style="opacity:0.30000000000000004"></polygon><polygon points="413.69 424.61 418.39 466.93 426.36 466.93 424 424.61 413.69 424.61" style="fill:#2684B5"></polygon><polygon points="413.75 425.13 424.16 425.37 424.55 431.92 414.35 430.25 413.75 425.13" style="opacity:0.30000000000000004"></polygon><polygon points="336.9 424.61 341.6 466.66 349.57 466.66 347.2 424.61 336.9 424.61" style="fill:#2684B5"></polygon><polygon points="336.96 425.13 347.37 425.37 347.75 431.92 337.56 430.25 336.96 425.13" style="opacity:0.30000000000000004"></polygon><path d="M404.13,426.57h11.46c8.89,0,16.09-5.43,16.09-12.12V378.62h-28Z" style="fill:#2684B5"></path><path d="M404.13,426.57h11.46c8.89,0,16.09-5.43,16.09-12.12V378.62h-28Z" style="opacity:0.30000000000000004"></path><polygon points="305.02 424.61 309.71 466.93 319.16 466.93 317.02 425 305.02 424.61" style="fill:#2684B5"></polygon><path d="M481.33,462.42l-.12-9.07-17,.12,0,13.27,1.05.06c4.69.23,23.86.82,27-.15C495.79,465.57,481.33,462.42,481.33,462.42Z" style="fill:#455a64"></path><path d="M464,466.35l.29,0,.84.05,3.09.11c2.61.07,6.21.13,10.19.11s7.59-.12,10.2-.23l3.08-.15.84,0,.29,0h-1.13l-3.09.09c-2.61.07-6.21.14-10.19.17s-7.58,0-10.19-.06l-3.09,0h-.84A1.29,1.29,0,0,0,464,466.35Z" style="fill:#263238"></path><path d="M486.91,466.67a6.67,6.67,0,0,1,.56-1.48,6.87,6.87,0,0,1,1-1.19,2.32,2.32,0,0,0-1.22,1.09A2.22,2.22,0,0,0,486.91,466.67Z" style="fill:#263238"></path><path d="M481.88,464.16c.05,0,.28-.26.53-.66a2,2,0,0,0,.36-.76s-.29.26-.54.65S481.83,464.13,481.88,464.16Z" style="fill:#263238"></path><path d="M480.5,463.44s.3-.14.59-.4.5-.52.46-.56-.3.14-.6.4S480.46,463.4,480.5,463.44Z" style="fill:#263238"></path><path d="M479.62,461.84a1.85,1.85,0,0,0,.88.11,2,2,0,0,0,.89-.1,2,2,0,0,0-.88-.11A2.13,2.13,0,0,0,479.62,461.84Z" style="fill:#263238"></path><path d="M479.31,460.71a1.73,1.73,0,0,0,1,.29,1.64,1.64,0,0,0,1-.15,5.47,5.47,0,0,0-1-.06A6,6,0,0,0,479.31,460.71Z" style="fill:#263238"></path><path d="M482.44,462.67a3.08,3.08,0,0,0,1.1,0,7.12,7.12,0,0,0,1.16-.26,3.61,3.61,0,0,0,.66-.28.62.62,0,0,0,.27-.34.45.45,0,0,0-.17-.44,2,2,0,0,0-2.47.6,2,2,0,0,0-.35.73.58.58,0,0,0,0,.3,3.12,3.12,0,0,1,.49-.94,2.07,2.07,0,0,1,.93-.61,1.73,1.73,0,0,1,1.3.08c.17.13.11.33-.08.45a3.14,3.14,0,0,1-.62.27,7.9,7.9,0,0,1-1.12.3C482.86,462.64,482.44,462.64,482.44,462.67Z" style="fill:#263238"></path><path d="M482.73,462.73a1.16,1.16,0,0,0,.12-.76,1.79,1.79,0,0,0-.31-.8,1.09,1.09,0,0,0-.91-.55.43.43,0,0,0-.33.51,1.15,1.15,0,0,0,.19.48,3.37,3.37,0,0,0,.52.66,1.54,1.54,0,0,0,.63.44s-.22-.2-.53-.54a4.06,4.06,0,0,1-.46-.65c-.15-.23-.25-.65,0-.7s.55.25.72.46a1.81,1.81,0,0,1,.31.71A4.55,4.55,0,0,1,482.73,462.73Z" style="fill:#263238"></path><path d="M464.33,461.7s.49-.05,1.26,0a5.34,5.34,0,0,1,4.47,3.51c.27.73.29,1.22.33,1.21a1,1,0,0,0,0-.34,4.34,4.34,0,0,0-.19-.91,5.15,5.15,0,0,0-1.74-2.52,5.26,5.26,0,0,0-2.86-1.1,5.12,5.12,0,0,0-.93,0A1,1,0,0,0,464.33,461.7Z" style="fill:#263238"></path><path d="M466.05,454.62a30.16,30.16,0,0,0-.13,3.49,28.15,28.15,0,0,0,.09,3.49,31.71,31.71,0,0,0,.12-3.49A29.5,29.5,0,0,0,466.05,454.62Z" style="fill:#263238"></path><path d="M472.55,464.89a14.09,14.09,0,0,0,5,0c0-.06-1.12,0-2.48,0S472.55,464.83,472.55,464.89Z" style="fill:#263238"></path><path d="M469.22,464.91c-.05,0,.09.23.2.49s.18.48.24.47.09-.27-.05-.56S469.25,464.87,469.22,464.91Z" style="fill:#263238"></path><path d="M468,463.36s.07.21.25.39.35.29.39.25-.07-.22-.25-.4S468,463.31,468,463.36Z" style="fill:#263238"></path><path d="M466.15,462.65c0,.06.24.06.49.14s.43.22.47.18-.1-.27-.41-.37S466.13,462.6,466.15,462.65Z" style="fill:#263238"></path><path d="M464.87,462.32c0,.06.08.14.22.2s.27.05.29,0-.08-.14-.22-.19S464.89,462.27,464.87,462.32Z" style="fill:#263238"></path><path d="M360.87,347.64l83,3.05a27.52,27.52,0,0,1,24.71,17.18c.18.45.35.92.52,1.39,5.31,15.25,15.6,90.81,15.6,90.81l-25.14-.59-16.07-80.33-64.22-1Z" style="fill:#263238"></path><path d="M454.4,424.07l-.12-9.07-17,.12,0,13.27,1.05.06c4.69.23,23.86.82,27-.15C468.86,427.22,454.4,424.07,454.4,424.07Z" style="fill:#455a64"></path><path d="M437.09,428l.29,0,.84,0,3.09.12c2.61.07,6.21.13,10.19.11s7.59-.12,10.2-.23l3.08-.15.84-.05.29,0h-1.13l-3.09.09c-2.61.06-6.21.14-10.19.16s-7.58,0-10.19,0l-3.09-.05h-1.13Z" style="fill:#263238"></path><path d="M460,428.32a6.67,6.67,0,0,1,.56-1.48,6.87,6.87,0,0,1,1-1.19,2.29,2.29,0,0,0-1.22,1.08A2.19,2.19,0,0,0,460,428.32Z" style="fill:#263238"></path><path d="M455,425.81s.28-.27.53-.66a2,2,0,0,0,.36-.76s-.29.26-.54.65S454.9,425.78,455,425.81Z" style="fill:#263238"></path><path d="M453.57,425.09s.3-.14.59-.4.5-.52.46-.56-.3.14-.6.4S453.53,425.05,453.57,425.09Z" style="fill:#263238"></path><path d="M452.69,423.49a1.85,1.85,0,0,0,.88.11,2,2,0,0,0,.89-.1,2.08,2.08,0,0,0-.89-.11A2.1,2.1,0,0,0,452.69,423.49Z" style="fill:#263238"></path><path d="M452.38,422.36a2.52,2.52,0,0,0,2,.14,5.47,5.47,0,0,0-1-.06A6,6,0,0,0,452.38,422.36Z" style="fill:#263238"></path><path d="M455.51,424.32a3.08,3.08,0,0,0,1.1,0,6.31,6.31,0,0,0,1.16-.27,3,3,0,0,0,.66-.27.62.62,0,0,0,.27-.34.45.45,0,0,0-.17-.44,2,2,0,0,0-2.47.6,2,2,0,0,0-.35.73.58.58,0,0,0,0,.3,3.12,3.12,0,0,1,.49-.94,2,2,0,0,1,.93-.61,1.68,1.68,0,0,1,1.3.08c.17.13.11.33-.08.45a2.62,2.62,0,0,1-.62.26,8.05,8.05,0,0,1-1.12.31C455.93,424.29,455.51,424.29,455.51,424.32Z" style="fill:#263238"></path><path d="M455.8,424.37a1.09,1.09,0,0,0,.12-.75,1.79,1.79,0,0,0-.31-.8,1.09,1.09,0,0,0-.91-.55.43.43,0,0,0-.33.51,1.15,1.15,0,0,0,.19.48,3.37,3.37,0,0,0,.52.66,1.63,1.63,0,0,0,.62.44s-.21-.2-.52-.54a4.06,4.06,0,0,1-.46-.65c-.15-.23-.26-.65,0-.7s.55.24.72.46a1.81,1.81,0,0,1,.31.71A4.44,4.44,0,0,1,455.8,424.37Z" style="fill:#263238"></path><path d="M437.4,423.35s.49-.05,1.26,0a5.34,5.34,0,0,1,4.47,3.51c.26.73.29,1.22.33,1.21a1,1,0,0,0,0-.34,4.22,4.22,0,0,0-.19-.91,5.15,5.15,0,0,0-4.6-3.62,5.12,5.12,0,0,0-.93,0A1,1,0,0,0,437.4,423.35Z" style="fill:#263238"></path><path d="M439.12,416.27a30.16,30.16,0,0,0-.13,3.49,28.15,28.15,0,0,0,.09,3.49,31.71,31.71,0,0,0,.12-3.49A29.5,29.5,0,0,0,439.12,416.27Z" style="fill:#263238"></path><path d="M445.61,426.54a9.85,9.85,0,0,0,2.49.23,9.69,9.69,0,0,0,2.48-.21c0-.06-1.12,0-2.48,0S445.62,426.48,445.61,426.54Z" style="fill:#263238"></path><path d="M442.29,426.56c-.05,0,.09.23.2.49s.18.48.24.47.09-.27-.05-.56S442.32,426.52,442.29,426.56Z" style="fill:#263238"></path><path d="M441,425s.07.22.25.4.35.29.39.25-.07-.22-.25-.4S441.06,425,441,425Z" style="fill:#263238"></path><path d="M439.22,424.3c0,.06.24.06.49.14s.43.22.47.18-.1-.27-.41-.37S439.2,424.25,439.22,424.3Z" style="fill:#263238"></path><path d="M437.94,424c0,.06.08.14.22.2s.27.05.29,0-.08-.14-.22-.19S438,423.92,437.94,424Z" style="fill:#263238"></path><path d="M371.51,348,434,316a18.15,18.15,0,0,1,8.3-2h0a18.18,18.18,0,0,1,18.18,17.94l1.18,88.79H431.85l-1.79-70.49Z" style="fill:#263238"></path><path d="M429.55,350.22c0,.14-15.39-.32-34.35-1s-34.34-1.41-34.33-1.55,15.38.31,34.35,1S429.55,350.08,429.55,350.22Z" style="fill:#455a64"></path><path d="M460.77,356.25a1.2,1.2,0,0,1,0,.31l0,.93c0,.84.05,2.05.08,3.6.06,3.16.15,7.72.26,13.43.17,11.49.42,27.58.7,46.14v.26h-30.3v-.26c0-22.23-.63-42-.8-56.28-.1-7.13-.13-12.86-.13-16.82,0-2,0-3.48,0-4.55,0-.5,0-.89,0-1.18a1.79,1.79,0,0,1,0-.4,2.12,2.12,0,0,1,0,.4c0,.29,0,.68,0,1.18,0,1.07,0,2.59.07,4.55.07,4,.16,9.71.28,16.81.26,14.25.92,34.05,1,56.29l-.26-.26h29.78l-.25.25c-.21-18.56-.39-34.66-.52-46.14-.05-5.71-.08-10.28-.11-13.44v-3.6c0-.39,0-.7,0-.93S460.77,356.25,460.77,356.25Z" style="fill:#455a64"></path><path d="M428.2,342.2a5.29,5.29,0,0,1,0,1.3,11.63,11.63,0,0,0,.48,3,10.83,10.83,0,0,0,1.24,2.79c.41.68.8,1,.76,1s-.55-.15-1.06-.81a8.08,8.08,0,0,1-1.44-2.87,8.24,8.24,0,0,1-.34-3.19C427.94,342.66,428.14,342.18,428.2,342.2Z" style="fill:#455a64"></path><polygon points="305.08 425.13 316.98 425.25 317.36 431.8 305.67 430.25 305.08 425.13" style="opacity:0.30000000000000004"></polygon><path d="M375.05,261.26c11.14,3.1,11.64,8.16,17.21,17.09l8.78,16-17.87,17.75v1.24L382.3,331l11,12.46-58.51,9.26-.86-33.5-4.24-27.5c-.39-4.34-1.64-12.44-.3-16.62,4.18-13.07,19.77-14.46,29.37-16.44a11.2,11.2,0,0,1,5.5.7" style="fill:#455a64"></path><path d="M328.78,278.58l-4.41,44.11c-2,11.66,4.58,22.36,14.89,22.87h0a18.06,18.06,0,0,0,9.07-2l34.84-14.45-6.43-14.95-30.91,6.53,5-36.69Z" style="fill:#455a64"></path><path d="M329.75,343.74a12.87,12.87,0,0,0,4,1.48,17.59,17.59,0,0,0,5,.12c2-.18,4.18-.68,6.68-1.08a76.1,76.1,0,0,0,7.8-2.77c2.8-1.11,5.79-2.34,9-3.65,6.34-2.65,13.38-5.65,20.91-8.92l-.13.33c-2.05-4.76-4.21-9.78-6.44-14.94l.29.15-4.8,1L345.88,321l-.37.07.08-.37C348.75,306,351,293.35,352,284.33a23.31,23.31,0,0,0,0-6,11.69,11.69,0,0,0-1.46-4.22A9,9,0,0,0,348,271.3a5.44,5.44,0,0,1,.81.55,8.15,8.15,0,0,1,1.85,2.15,11.73,11.73,0,0,1,1.55,4.26,23.18,23.18,0,0,1,.07,6.1,366.57,366.57,0,0,1-6.2,36.42l-.29-.29,26.1-5.53,4.8-1,.21-.05.09.2,6.42,14.95.1.23-.23.1c-7.54,3.26-14.59,6.24-20.95,8.85-3.18,1.3-6.18,2.52-9,3.61a73.15,73.15,0,0,1-7.89,2.73c-2.49.38-4.72.86-6.71,1a17.26,17.26,0,0,1-5.06-.2,11.71,11.71,0,0,1-3-1.07l-.7-.42Z" style="fill:#263238"></path><path d="M383.62,310.6a5.92,5.92,0,0,1,0-1.32c0-.95,0-2.15.06-3.59.07-3,.15-7.21.19-11.84s0-8.81,0-11.84v-3.59a5.72,5.72,0,0,1,.06-1.32,6.47,6.47,0,0,1,.14,1.31c.06.85.11,2.08.17,3.59.11,3,.18,7.23.14,11.86s-.18,8.82-.34,11.85c-.08,1.51-.16,2.74-.23,3.58A7.05,7.05,0,0,1,383.62,310.6Z" style="fill:#263238"></path><polyline points="395.32 282.82 395.76 280.18 418.17 286.29 421.05 286.02 437.31 279.39 439.18 281.66 421.05 290.86 412.46 290.86 395.32 283.22" style="fill:#f5f5f5"></polyline><polygon points="394 282.54 384.11 321.85 407.29 324.76 428.18 317.49 440.82 280.7 421.05 287.59 418.06 287.59 394 282.54" style="fill:#2684B5"></polygon><polygon points="418.06 287.59 407.29 324.76 410.19 323.75 421.05 287.59 418.06 287.59" style="opacity:0.30000000000000004"></polygon><polygon points="419.38 286.17 434.6 277.1 434.1 280.7 421.05 286.02 419.38 286.17" style="fill:#e0e0e0"></polygon><polygon points="421.05 298.75 419.04 304.27 431.99 300.2 434.6 294.71 421.05 298.75" style="opacity:0.30000000000000004"></polygon><path d="M384.31,326.05c15.72-.85,15-6.13,15-6.13l-5.46-1.42a20.81,20.81,0,0,0,3.82,0,5.24,5.24,0,0,0,2.86-1.64l-15.86-2s1-1.53,2.46-4.26.82-3.5.82-3.5L379.13,314l-1.92,1.11L382,326.52Z" style="fill:#ffbe9d"></path><path d="M336.47,293.25a50.27,50.27,0,0,1-6.23,4.24,11.21,11.21,0,0,1,2.9-2.43A11.48,11.48,0,0,1,336.47,293.25Z" style="fill:#fafafa"></path><path d="M338.45,284.07a436.32,436.32,0,0,1-4.49-4.16,9.51,9.51,0,0,1,4.49,4.16Z" style="fill:#fafafa"></path><path d="M346.79,280.07a28,28,0,0,1-1.33,7.5,14.11,14.11,0,0,1,.41-3.79A14.57,14.57,0,0,1,346.79,280.07Z" style="fill:#fafafa"></path><path d="M342.51,305.75a7.29,7.29,0,0,1-.85-3,7.13,7.13,0,0,1,0-3.15,14.59,14.59,0,0,1,.49,3.08A13.87,13.87,0,0,1,342.51,305.75Z" style="fill:#fafafa"></path><path d="M336.11,312.73a10.09,10.09,0,0,1-2.51-2,10,10,0,0,1-2.15-2.36,10.09,10.09,0,0,1,2.51,2A9.72,9.72,0,0,1,336.11,312.73Z" style="fill:#fafafa"></path><path d="M334.45,324.52a10.52,10.52,0,0,1-3.11,1.12,11.22,11.22,0,0,1-3.25.61,10.81,10.81,0,0,1,3.11-1.12A11.22,11.22,0,0,1,334.45,324.52Z" style="fill:#fafafa"></path><path d="M340.3,325.21a13,13,0,0,1,.18-3.62,12.77,12.77,0,0,1,.7-3.56,13,13,0,0,1-.18,3.62A13.21,13.21,0,0,1,340.3,325.21Z" style="fill:#fafafa"></path><path d="M340.78,336.72a11.44,11.44,0,0,1-3.25-.94,11.25,11.25,0,0,1-3.07-1.42,10.85,10.85,0,0,1,3.25.93A11.64,11.64,0,0,1,340.78,336.72Z" style="fill:#fafafa"></path><path d="M354.23,327.51a23.39,23.39,0,0,1-1.67,3.37,22.06,22.06,0,0,1-1.78,3.32,10.27,10.27,0,0,1,1.31-3.56A10.07,10.07,0,0,1,354.23,327.51Z" style="fill:#fafafa"></path><path d="M365.91,328.9a15.29,15.29,0,0,1-3.05-2.53,15.57,15.57,0,0,1-2.69-2.9,15.61,15.61,0,0,1,3.05,2.53A16,16,0,0,1,365.91,328.9Z" style="fill:#fafafa"></path><path d="M373.56,321.7c.14.05-.38,1.52-.54,3.39s.08,3.41-.07,3.44a8.14,8.14,0,0,1,.61-6.83Z" style="fill:#fafafa"></path><path d="M356.4,311.27a6.67,6.67,0,0,1-3.46-4.38,24.29,24.29,0,0,1,1.66,2.25A26.61,26.61,0,0,1,356.4,311.27Z" style="fill:#fafafa"></path><path d="M369.42,303.21a9.8,9.8,0,0,1-1.88,2.6,10.11,10.11,0,0,1-2.27,2.25,9.67,9.67,0,0,1,1.88-2.59A10,10,0,0,1,369.42,303.21Z" style="fill:#fafafa"></path><path d="M360.79,299.74s0,.1-.1.23l-.09.14-.06-.19a17,17,0,0,1-.46-3.55,10.89,10.89,0,0,1,.26-3.81,20.89,20.89,0,0,1,.26,3.79c.06,1.64.15,3,.11,3.55l-.15,0C360.69,299.76,360.77,299.72,360.79,299.74Z" style="fill:#fafafa"></path><path d="M371.42,288.42a10,10,0,0,1-5.82-3,200.26,200.26,0,0,0,5.82,3Z" style="fill:#fafafa"></path><path d="M376.76,300.56a13.42,13.42,0,0,1,.05-3.69,13.22,13.22,0,0,1,.57-3.64,12.91,12.91,0,0,1-.05,3.68A13.35,13.35,0,0,1,376.76,300.56Z" style="fill:#fafafa"></path><path d="M378.26,277.74a8.29,8.29,0,0,1-5.5.83,14.17,14.17,0,0,1,2.74-.45A13.72,13.72,0,0,1,378.26,277.74Z" style="fill:#fafafa"></path><path d="M356.34,279.74a11.35,11.35,0,0,1,0-4.83,11.35,11.35,0,0,1,0,4.83Z" style="fill:#fafafa"></path><path d="M344.45,267.75a30,30,0,0,1-3.18,1.81,27.49,27.49,0,0,1-3.15,1.85,12.55,12.55,0,0,1,6.33-3.66Z" style="fill:#fafafa"></path><path d="M383.56,271.78a8.14,8.14,0,0,1-2.3-1.77c-1.16-1.09-2-2.05-1.93-2.16a16.49,16.49,0,0,1,4.23,3.93Z" style="fill:#fafafa"></path><path d="M388.36,287.55a8.94,8.94,0,0,1,.82-2.85,8.61,8.61,0,0,1,1.3-2.67,8.76,8.76,0,0,1-.81,2.85A8.5,8.5,0,0,1,388.36,287.55Z" style="fill:#fafafa"></path><path d="M387.56,299.39c-.15,0-.23-.79-.19-1.76s.2-1.74.34-1.74.23.8.18,1.76S387.7,299.4,387.56,299.39Z" style="fill:#fafafa"></path><path d="M376.92,339.53a5.43,5.43,0,0,1-.52-2.3,5.61,5.61,0,0,1,0-2.36,5.26,5.26,0,0,1,.52,2.3A5.62,5.62,0,0,1,376.92,339.53Z" style="fill:#fafafa"></path><path d="M384.25,339.86c-.12.07-.64-.62-1.14-1.54s-.82-1.72-.69-1.79.64.62,1.14,1.54S384.38,339.79,384.25,339.86Z" style="fill:#fafafa"></path><path d="M373.73,256.07a6.65,6.65,0,0,0,2.65,4.25,4.72,4.72,0,0,0,4.87.3,3.63,3.63,0,0,0,1.57-4.42,5,5,0,1,0,6.54-7.4c1.25,1.62,4.1,1,5.15-.73s.64-4-.34-5.83a44.31,44.31,0,0,0-3.69-4.88c-2.3-3.06-2.34-7.78-2.49-12.66-.05-1.65-1.44-1.3-1.91-2.9a4.32,4.32,0,0,0-3.36-3.28" style="fill:#2684B5"></path><path d="M365.46,213.83c-3.33-.41-6.59,1.4-8.74,3.77s-3.47,5.27-5.08,8S348,231,345,232.33c-1.56.7-3.36,1-4.61,2.16a4,4,0,0,0-1.31,3.64,4.3,4.3,0,0,0,2.52,3.07,9,9,0,0,0-1.52,4.28,4.65,4.65,0,0,0,1.9,4,3.82,3.82,0,0,0,4.54-.13c.95,2.81,2.36,5.86,5.32,7s6.46-.15,8.57-2.32,3.12-5.07,3.9-7.9" style="fill:#2684B5"></path><path d="M388.09,224.09s1.74-11.86-14.55-12.08c-18.26-.24-21.55,15.32-18.43,23.55l9.08-9Z" style="fill:#2684B5"></path><path d="M373.77,262.93c.18-3.16.31-5.73.31-5.73s9.35.22,10.72-7.89,2.95-27,2.95-27h0a24.54,24.54,0,0,0-27.3.45l-.77.53-5.9,37.46a10.06,10.06,0,0,0,8.29,11.5h0A10.07,10.07,0,0,0,373.77,262.93Z" style="fill:#ffbe9d"></path><path d="M384.42,236.7a1,1,0,1,1-.9-1.16A1,1,0,0,1,384.42,236.7Z" style="fill:#263238"></path><path d="M385.17,235.73c-.14.12-.82-.62-1.91-.8s-2,.27-2.07.11.12-.31.5-.52a2.67,2.67,0,0,1,3.18.55C385.17,235.4,385.24,235.67,385.17,235.73Z" style="fill:#263238"></path><path d="M373.46,235.65a1,1,0,1,1-.9-1.16A1,1,0,0,1,373.46,235.65Z" style="fill:#263238"></path><path d="M374,234.73c-.15.12-.83-.62-1.92-.8s-2,.27-2.06.11.11-.31.5-.52a2.63,2.63,0,0,1,1.68-.26,2.6,2.6,0,0,1,1.5.81C374,234.4,374.08,234.68,374,234.73Z" style="fill:#263238"></path><path d="M375.42,243.17a6.66,6.66,0,0,1,1.81.13c.28,0,.55,0,.65-.14a1.71,1.71,0,0,0,0-.92c-.08-.77-.17-1.59-.26-2.44a42.76,42.76,0,0,1-.4-6.33,42.39,42.39,0,0,1,.87,6.27c.08.86.16,1.67.23,2.45a1.86,1.86,0,0,1-.14,1.19.67.67,0,0,1-.55.31,2.21,2.21,0,0,1-.48-.05A7.17,7.17,0,0,1,375.42,243.17Z" style="fill:#263238"></path><path d="M374.11,257.17a19.55,19.55,0,0,1-10.13-4.8s2,6.45,10,7Z" style="fill:#eb996e"></path><path d="M374.35,246.38a2.17,2.17,0,0,0-1.07-1.72,1.68,1.68,0,0,0-1.41-.15,1.22,1.22,0,0,0-.81,1.11,1.43,1.43,0,0,0,1,1.2,3.93,3.93,0,0,0,1.64.09,1.09,1.09,0,0,0,.44-.1.41.41,0,0,0,.23-.37" style="fill:#eb996e"></path><path d="M372,243.44c-.08,0-.26.28-.29.81a2.89,2.89,0,0,0,.66,2,3,3,0,0,0,1.8,1c.54.07.86,0,.85-.13s-1.26-.24-2.14-1.32S372.14,243.46,372,243.44Z" style="fill:#263238"></path><path d="M358.57,233.87c-.13-.09-4.65-2-5.95,3.28s4.9,4.79,4.94,4.64S358.57,233.87,358.57,233.87Z" style="fill:#ffbe9d"></path><path d="M356.27,239.55s-.11,0-.3.08a1.12,1.12,0,0,1-.75-.15,2.24,2.24,0,0,1-.63-2.3,3.05,3.05,0,0,1,.6-1.27,1.2,1.2,0,0,1,.92-.55.5.5,0,0,1,.52.38c0,.16,0,.26,0,.28s.14-.06.15-.29a.62.62,0,0,0-.14-.39.83.83,0,0,0-.52-.25,1.49,1.49,0,0,0-1.24.61,3,3,0,0,0-.7,1.41,2.38,2.38,0,0,0,.89,2.61,1.16,1.16,0,0,0,.94.05C356.23,239.67,356.29,239.56,356.27,239.55Z" style="fill:#eb996e"></path><path d="M385.9,218.58A5.6,5.6,0,0,1,388,224.7c-.8,2.55-3.18,5.33-9.79,5.22l1.5-1.67a11.64,11.64,0,0,1-10.58,1.86l1.85-3.59s-8.35,8.86-13.05,9.25l.62-9.46c1.13-8.91,4.95-11.59,10.73-12.06a30.25,30.25,0,0,1,6.44.11A22.06,22.06,0,0,1,385.9,218.58Z" style="fill:#2684B5"></path><path d="M352.91,240.5a2.54,2.54,0,0,0-.7,1,1.6,1.6,0,0,0,.1,1.24,1.69,1.69,0,0,0,1.28.79,1.79,1.79,0,0,0,1.45-.42,1.61,1.61,0,0,0,.48-1.16,2.22,2.22,0,0,0-.38-1.15s.13,0,.28.22a1.65,1.65,0,0,1,.34.93,1.8,1.8,0,0,1-.5,1.38,2,2,0,0,1-1.71.54,1.94,1.94,0,0,1-1.51-1,1.81,1.81,0,0,1-.06-1.47,1.71,1.71,0,0,1,.6-.78A.59.59,0,0,1,352.91,240.5Z" style="fill:#455a64"></path><path d="M374.53,232.65s-.26-.17-.66-.42a4.33,4.33,0,0,0-1.73-.6,4.24,4.24,0,0,0-1.81.23c-.45.16-.71.32-.74.28s.19-.27.64-.5a3.61,3.61,0,0,1,1.95-.35A3.69,3.69,0,0,1,374,232C374.4,232.35,374.56,232.63,374.53,232.65Z" style="fill:#2684B5"></path><path d="M384.94,233.65a6.89,6.89,0,0,1-2.11,0,6.76,6.76,0,0,1-2.09-.32,6.53,6.53,0,0,1,2.11,0A6.76,6.76,0,0,1,384.94,233.65Z" style="fill:#2684B5"></path><path d="M344.91,250.21a2.78,2.78,0,0,1-.28-.48,4.07,4.07,0,0,1-.29-.62,7.46,7.46,0,0,1-.3-.88,11.61,11.61,0,0,1-.12-5.89,15,15,0,0,1,1.44-3.84,17.79,17.79,0,0,1,2.83-3.77,32.33,32.33,0,0,1,8.82-6.07c3.41-1.7,6.74-3.08,9.62-4.65a28.64,28.64,0,0,0,7-5,17.62,17.62,0,0,0,3.41-4.69c.6-1.25.8-2,.85-2a1.84,1.84,0,0,1-.12.55,9.14,9.14,0,0,1-.55,1.51,16.45,16.45,0,0,1-3.33,4.87,28.42,28.42,0,0,1-7,5.21c-2.88,1.6-6.22,3-9.6,4.68a32.9,32.9,0,0,0-8.72,5.95,15.54,15.54,0,0,0-4.25,7.35,12,12,0,0,0,0,5.76C344.57,249.51,345,250.18,344.91,250.21Z" style="fill:#fafafa"></path><path d="M357.9,235.21s0-.11,0-.33a4.74,4.74,0,0,1,.29-.91,8.85,8.85,0,0,1,2-2.88,16.93,16.93,0,0,1,4.32-2.91c1.74-.88,3.74-1.67,5.62-2.84a21.7,21.7,0,0,0,7.65-8.22,44.42,44.42,0,0,0,1.85-4.36,5.76,5.76,0,0,1-.26,1.25,17.54,17.54,0,0,1-1.26,3.27,20.94,20.94,0,0,1-7.71,8.5,58.69,58.69,0,0,1-5.68,2.83,17.67,17.67,0,0,0-4.28,2.75A9.68,9.68,0,0,0,357.9,235.21Z" style="fill:#fafafa"></path><path d="M302,287.81l12.36,53.63h47.5c23.29,0,42.54,23.93,42.17,42.18v42.95l-101.72-1.48L272.62,256.5h0C291.43,256.5,297.74,269.48,302,287.81Z" style="fill:#2684B5"></path><path d="M327.12,377a1.45,1.45,0,0,1,.9.05,3.44,3.44,0,0,1,2,1.48,3.38,3.38,0,0,1,.57,1.65,3.07,3.07,0,0,1-.52,1.95,3.82,3.82,0,0,1-4.09,1.64,3.93,3.93,0,0,1-2.72-3.47,3.4,3.4,0,0,1,.43-2,3.76,3.76,0,0,1,1.18-1.28,3.86,3.86,0,0,1,2.35-.72,1.66,1.66,0,0,1,.88.19c0,.05-.32,0-.87,0a4,4,0,0,0-2.15.81,3.26,3.26,0,0,0-1.34,2.92,3.5,3.5,0,0,0,2.38,3,3.37,3.37,0,0,0,3.55-1.4,2.9,2.9,0,0,0,0-3.15,3.47,3.47,0,0,0-1.72-1.48C327.44,377.05,327.12,377.06,327.12,377Z" style="fill:#263238"></path><path d="M324,378.52a3.92,3.92,0,0,1-1.76.21,9.24,9.24,0,0,1-7.27-4.1,3.73,3.73,0,0,1-.72-1.62,14.91,14.91,0,0,1,1,1.41,10.53,10.53,0,0,0,7,3.95A13.41,13.41,0,0,1,324,378.52Z" style="fill:#263238"></path><path d="M331,368.76c0,.07-.36.41-.85,1.08a7.26,7.26,0,0,0-1.28,2.93A7.17,7.17,0,0,0,329,376a9.07,9.07,0,0,1,.4,1.31c-.05,0-.42-.37-.75-1.19a6.23,6.23,0,0,1-.29-3.41,6.31,6.31,0,0,1,1.5-3.07C330.44,369,330.94,368.72,331,368.76Z" style="fill:#263238"></path><path d="M325.43,397.73s-.22-.15-.52-.51a7.7,7.7,0,0,1-1.07-1.66,9.26,9.26,0,0,1,3.07-11.73,7.8,7.8,0,0,1,1.75-.93,1.76,1.76,0,0,1,.7-.18c0,.09-.95.41-2.23,1.41a9.39,9.39,0,0,0-3,11.27C324.81,396.9,325.51,397.67,325.43,397.73Z" style="fill:#263238"></path><path d="M362.14,379.09a1.65,1.65,0,0,1,.9.05,3.47,3.47,0,0,1,2,1.48,3.56,3.56,0,0,1,.57,1.65,3.24,3.24,0,0,1-.52,2,3.84,3.84,0,0,1-4.09,1.64,3.94,3.94,0,0,1-2.72-3.48,3.49,3.49,0,0,1,.42-2,4.07,4.07,0,0,1,1.18-1.28,3.91,3.91,0,0,1,2.36-.72,1.6,1.6,0,0,1,.88.2s-.32,0-.88,0a4.07,4.07,0,0,0-2.14.82,3.26,3.26,0,0,0-1.35,2.91,3.53,3.53,0,0,0,2.39,3,3.4,3.4,0,0,0,3.55-1.41,2.86,2.86,0,0,0,0-3.14,3.44,3.44,0,0,0-1.71-1.49C362.46,379.14,362.14,379.14,362.14,379.09Z" style="fill:#263238"></path><path d="M359,380.6a3.67,3.67,0,0,1-1.76.22,9.29,9.29,0,0,1-7.27-4.11,3.84,3.84,0,0,1-.73-1.62,15.4,15.4,0,0,1,1,1.41,10.37,10.37,0,0,0,7,3.95A16.07,16.07,0,0,1,359,380.6Z" style="fill:#263238"></path><path d="M366,370.85c.06.07-.35.41-.85,1.08a7.13,7.13,0,0,0-1.27,2.93,7.35,7.35,0,0,0,.12,3.2,9.63,9.63,0,0,1,.41,1.31c-.05,0-.43-.37-.76-1.2a6.33,6.33,0,0,1-.28-3.41,6.22,6.22,0,0,1,1.5-3.07C365.45,371,366,370.8,366,370.85Z" style="fill:#263238"></path><path d="M360.45,399.81s-.22-.15-.53-.5a8.26,8.26,0,0,1-1.06-1.67,9.25,9.25,0,0,1,3.07-11.72,7.57,7.57,0,0,1,1.74-.93,1.79,1.79,0,0,1,.71-.18c0,.08-.95.41-2.23,1.4a9.41,9.41,0,0,0-3,11.28A25.58,25.58,0,0,0,360.45,399.81Z" style="fill:#263238"></path><g style="opacity:0.2"><path d="M364.06,379.55c.2-2.15.26-4.66-1.4-6s-3.8-.93-5.72-.37a11.6,11.6,0,0,0-5.52,3c-2.23,2.5-2.32,6.21-2,9.54.23,2.36.64,4.82,2.1,6.7a4.26,4.26,0,0,0,4.14,1.83c1.7-.41,2.66-2.16,3.34-3.78s1.39-3.41,3-4.17a4.79,4.79,0,0,1-3.64-2.93,3.56,3.56,0,0,1,1.46-4.24,2.87,2.87,0,0,1,4,1.47"></path></g><g style="opacity:0.2"><path d="M329,377.21c.2-2.15.26-4.66-1.4-6s-3.81-.94-5.72-.38a11.49,11.49,0,0,0-5.52,3c-2.23,2.49-2.32,6.2-2,9.53.23,2.37.64,4.83,2.1,6.7a4.25,4.25,0,0,0,4.13,1.84c1.7-.41,2.67-2.17,3.35-3.78s1.39-3.42,3-4.18a4.11,4.11,0,0,1-3.28-2.79,3.19,3.19,0,0,1,1.7-3.85c1.42-.78,3.54-.81,4,.74"></path></g></g><g id="freepik--Plant--inject-97"><path d="M593.42,364.33c5.44-2.81,11.84-3.17,17.88-2.18,3.24.54,6.63,1.51,8.83,4s2.63,6.72.09,8.82c-1.5,1.24-3.61,1.43-5.57,1.41-4.72-.05-10-.89-13.74,2-2.16,1.62-3.59,4.32-6.17,5.12s-5.36-.71-6.7-3a10.4,10.4,0,0,1-.76-7.68A11.74,11.74,0,0,1,593.42,364.33Z" style="fill:#2684B5"></path><path d="M581,340.27c3.32,4.75,9.79,3.18,12.78.28s4.27-7.1,5.42-11.11c2.64-9.16,5.29-18.76,3.33-28.09a15.65,15.65,0,0,0-3.58-7.63,8.15,8.15,0,0,0-7.73-2.57c-3.26.86-5.28,4.05-6.75,7.09A66.91,66.91,0,0,0,577.82,327c0,4.63.53,9.48,3.14,13.3" style="fill:#2684B5"></path><path d="M571.82,347.09c3.61-4.29,4.3-10.54,2.69-15.91s-5.24-9.94-9.42-13.66a50.54,50.54,0,0,0-16.87-10,18,18,0,0,0-7.59-1.29,8,8,0,0,0-6.36,3.86c-1.78,3.38-.08,7.49,1.76,10.84a129.11,129.11,0,0,0,11.09,16.87c3.32,4.28,7.12,8.51,12.18,10.44s10.32,1.71,13-1.8" style="fill:#2684B5"></path><path d="M580.73,411.93a11,11,0,0,0,.3-2.16c.15-1.57.35-3.54.57-5.89a86.26,86.26,0,0,1,1.33-8.64,67.18,67.18,0,0,1,3.14-10.2,37.65,37.65,0,0,1,5.21-9.23,19.52,19.52,0,0,1,6.58-5.47,18.46,18.46,0,0,1,5.55-1.73,10.72,10.72,0,0,0,2.15-.31,10.32,10.32,0,0,0-2.19,0,16.82,16.82,0,0,0-5.78,1.5,19.58,19.58,0,0,0-7,5.52,36.8,36.8,0,0,0-5.4,9.42,62,62,0,0,0-3.11,10.36,70.72,70.72,0,0,0-1.15,8.75c-.19,2.5-.26,4.53-.29,5.93A9.73,9.73,0,0,0,580.73,411.93Z" style="fill:#263238"></path><path d="M581.14,407.4a4.17,4.17,0,0,0,.05-1v-2.86c0-2.48,0-6.08.12-10.52.22-8.89,1-18.45,2.47-31.93,1.4-12.67,3.27-27.42,5.26-37,.42-2.18.85-4.15,1.25-5.86s.71-3.21,1-4.41.49-2.06.67-2.79a4.24,4.24,0,0,0,.17-1,5,5,0,0,0-.34.94l-.84,2.75c-.36,1.19-.74,2.66-1.17,4.38s-.93,3.67-1.39,5.85a324.66,324.66,0,0,0-5.53,34.34c-1.48,13.51-2.15,25.81-2.21,34.71,0,4.46.05,8.06.16,10.55.07,1.16.13,2.11.18,2.86A3.77,3.77,0,0,0,581.14,407.4Z" style="fill:#263238"></path><path d="M581.2,383.68a19.73,19.73,0,0,0,0-3c-.12-1.92-.38-4.7-.92-8.1a108.1,108.1,0,0,0-2.64-11.81,96,96,0,0,0-4.94-14,74.41,74.41,0,0,0-14.5-22.58,35.35,35.35,0,0,0-3.41-3.17c-.52-.44-1-.89-1.46-1.24l-1.32-.91a19.77,19.77,0,0,0-2.52-1.61c-.14.19,3.57,2.38,8.26,7.37a78.61,78.61,0,0,1,14.14,22.5,111.15,111.15,0,0,1,5,13.84,118.54,118.54,0,0,1,2.81,11.7c.62,3.37,1,6.12,1.19,8A18.17,18.17,0,0,0,581.2,383.68Z" style="fill:#263238"></path><polygon points="558.27 425.52 560.65 458.08 602.48 458.08 604.86 425.52 558.27 425.52" style="fill:#263238"></polygon><rect x="554.23" y="412.68" width="55.62" height="12.84" style="fill:#263238"></rect><polygon points="554.23 456.84 554.23 460.39 556.84 460.39 608.93 460.39 608.93 456.84 554.23 456.84" style="fill:#455a64"></polygon><polygon points="559.4 466.66 556.84 460.39 606.94 460.39 603.95 466.66 559.4 466.66" style="fill:#455a64"></polygon><path d="M604.08,436.16a1.34,1.34,0,0,1-.2.3l-.62.83-2.44,3.12-.11.14-.1-.15-6-8.28H595l-5.9,8.35-.18.26-.21-.25c-2.18-2.58-4.54-5.4-7-8.31h.4l-.38.48-6.25,7.84-.21.26-.19-.27c-2.13-3-4.11-5.81-5.9-8.34h.34l-7.26,8.28-.13.14-.1-.16-2.27-3.82-.59-1c-.12-.23-.19-.36-.17-.36a1.54,1.54,0,0,1,.24.32l.64,1c.59.91,1.39,2.17,2.39,3.75l-.23,0,7.15-8.37.18-.22.16.23,6,8.31h-.4l6.24-7.85q.19-.26.39-.48l.19-.25.21.24c2.44,2.93,4.8,5.74,7,8.34h-.39l6-8.3.18-.25.17.25,5.86,8.37h-.22l2.54-3c.27-.32.5-.58.68-.78S604.07,436.15,604.08,436.16Z" style="fill:#e0e0e0"></path><path d="M605.44,425.3c0,.15-10.48.26-23.41.26s-23.41-.11-23.41-.26S569.1,425,582,425,605.44,425.16,605.44,425.3Z" style="fill:#455a64"></path><path d="M607.55,460.74c0,.15-11.39.27-25.44.27s-25.44-.12-25.44-.27,11.39-.26,25.44-.26S607.55,460.6,607.55,460.74Z" style="fill:#263238"></path></g><g id="freepik--Lamp--inject-97"><rect x="169.88" y="194.31" width="103.96" height="2" transform="translate(-61.19 110.16) rotate(-24.61)" style="fill:#263238"></rect><rect x="196.32" y="206.56" width="2" height="259.84" style="fill:#263238"></rect><rect x="194.56" y="275.28" width="5.12" height="34.87" rx="2.32" style="fill:#455a64"></rect><path d="M266.85,173.55l2.63,4.54,11.76-6.83-3-4.67a6.68,6.68,0,0,0-8.77-2.28h0A6.67,6.67,0,0,0,266.85,173.55Z" style="fill:#455a64"></path><polygon points="269.12 176.3 262.41 207.99 311 180.48 281.24 171.26 269.12 176.3" style="fill:#455a64"></polygon><path d="M313.26,181.79c-2.43-4.49-15.84-1.95-29.94,5.68s-23.57,17.47-21.13,22,15.84,2,29.94-5.68S315.69,186.29,313.26,181.79Z" style="fill:#263238"></path><path d="M169.64,466.41h56.13s-8.35-8.51-28.45-7.69S169.64,466.41,169.64,466.41Z" style="fill:#263238"></path><path d="M201.12,206.6a3.81,3.81,0,1,1-3.8-3.81A3.81,3.81,0,0,1,201.12,206.6Z" style="fill:#455a64"></path><polygon points="269.04 165.38 266.38 160.86 268.69 160 270.79 164.74 269.04 165.38" style="fill:#455a64"></polygon><path d="M281.24,171a22.89,22.89,0,0,0-7,1.67,22.53,22.53,0,0,0-5.79,4.21,5.68,5.68,0,0,1,1.31-1.7,14.68,14.68,0,0,1,4.27-3,14.92,14.92,0,0,1,5-1.31A6.21,6.21,0,0,1,281.24,171Z" style="fill:#263238"></path><path d="M279.79,189.49v9.45a4.54,4.54,0,0,0,1.07,3c1.2,1.37,3.71,2.46,8.79-.22,6-3.16,5.38-6.7,4.41-8.61a4.69,4.69,0,0,0-1.84-1.93l-7.58-4.41Z" style="fill:#fafafa"></path><path d="M283,187.76a6.16,6.16,0,0,1,.56,1.1,31.13,31.13,0,0,0,1.64,2.93c.38.6.81,1.24,1.3,1.91a4.19,4.19,0,0,0,.83.9,1.15,1.15,0,0,0,1.07.23.9.9,0,0,0,.56-.89.88.88,0,0,0-.74-.8,2.48,2.48,0,0,0-1.35.31c-.47.23-.94.47-1.4.74s-.9.57-1.33.87-.76.62-.71,1a2.55,2.55,0,0,0,.52,1.2c.25.3.63.21.87-.11a1.1,1.1,0,0,0,.11-1.09,6.82,6.82,0,0,0-.55-1.12l-1.13-2c-.63-1.18-1.17-2.17-1.6-3a6.61,6.61,0,0,1-.52-1.12,5.27,5.27,0,0,1,.7,1c.47.77,1.05,1.74,1.74,2.89.37.62.76,1.29,1.18,2a7.35,7.35,0,0,1,.62,1.19,2,2,0,0,1,.12.75,1.41,1.41,0,0,1-.29.78,1.2,1.2,0,0,1-.73.47,1,1,0,0,1-.88-.31,3,3,0,0,1-.67-1.52,1.33,1.33,0,0,1,.28-.9,3.08,3.08,0,0,1,.64-.57c.43-.31.89-.61,1.36-.89s1-.54,1.45-.77a3,3,0,0,1,1.65-.35,1.41,1.41,0,0,1,1.16,1.26,1.37,1.37,0,0,1-.89,1.38A1.54,1.54,0,0,1,287,195a4.77,4.77,0,0,1-.91-1c-.48-.69-.9-1.35-1.26-2a21.42,21.42,0,0,1-1.51-3A4.38,4.38,0,0,1,283,187.76Z" style="fill:#263238"></path></g></svg>