<svg xmlns="http://www.w3.org/2000/svg" viewBox="0 0 500 500"><g id="freepik--Floor--inject-71"><ellipse id="freepik--floor--inject-71" cx="251.12" cy="344.14" rx="222.64" ry="138.37" style="fill:#f5f5f5"></ellipse></g><g id="freepik--Shadows--inject-71"><path id="freepik--Shadow--inject-71" d="M184.46,332c26.57,15.34,26.57,40.22,0,55.56s-69.66,15.34-96.23,0-26.57-40.21,0-55.56S157.89,316.64,184.46,332Z" style="fill:#e0e0e0"></path><ellipse id="freepik--shadow--inject-71" cx="264.16" cy="393.53" rx="46.2" ry="26.68" style="fill:#e0e0e0"></ellipse><path id="freepik--shadow--inject-71" d="M251.94,233.56c12.3,7.1,12.3,18.61,0,25.71s-32.23,7.1-44.52,0-12.3-18.61,0-25.71S239.65,226.46,251.94,233.56Z" style="fill:#e0e0e0"></path><path id="freepik--shadow--inject-71" d="M251.44,354.82l95.33-55a5.21,5.21,0,0,1,4.74,0L432,346.26c1.31.76,1.31,2,0,2.74l-95.32,55a5.21,5.21,0,0,1-4.74,0l-6.56-3.78L281.62,375l-30.18-17.42C250.14,356.8,250.14,355.58,251.44,354.82Z" style="fill:#e0e0e0"></path></g><g id="freepik--Lamp--inject-71"><g id="freepik--lamp--inject-71"><path d="M245.1,233.87c8.52,4.92,8.52,12.89,0,17.81s-22.33,4.91-30.84,0-8.52-12.89,0-17.81S236.58,229,245.1,233.87Z" style="fill:#37474f"></path><path d="M207.87,242.77h0c0-3.22,2.11-6.44,6.37-8.9,8.51-4.92,22.32-4.92,30.84,0,4.26,2.46,6.37,5.68,6.37,8.9h0v3h0c-.05,3.18-2.19,6.35-6.39,8.77-8.52,4.92-22.33,4.92-30.84,0-4.21-2.42-6.34-5.59-6.39-8.77h0Z" style="fill:#263238"></path><path d="M245.1,233.87c8.52,4.92,8.52,12.89,0,17.81s-22.33,4.91-30.84,0-8.52-12.89,0-17.81S236.58,229,245.1,233.87Z" style="fill:#37474f"></path><path d="M227.33,111.76H232V241.37h0a1.1,1.1,0,0,1-.67,1.07,3.66,3.66,0,0,1-3.32,0,1.09,1.09,0,0,1-.67-1.07h0Z" style="fill:#455a64"></path><path d="M199.05,107.29h0l7.55-36.14h46.2l7.55,36.14h0c2.06,5.75-.77,12-8.5,16.44-12.22,7-32,7-44.26,0C199.82,119.26,197,113,199.05,107.29Z" style="fill:#2684B5"></path><path d="M246.1,82c-9.07,5.24-23.77,5.24-32.84,0s-9.07-13.72,0-19,23.77-5.23,32.84,0S255.17,76.78,246.1,82Z" style="fill:#2684B5"></path><path d="M246.1,82c-9.07,5.24-23.77,5.24-32.84,0s-9.07-13.72,0-19,23.77-5.23,32.84,0S255.17,76.78,246.1,82Z" style="fill:#fff;opacity:0.6000000000000001"></path><path d="M229.68,82.64a29,29,0,0,0,14.23-3.36c3.32-1.92,5.14-4.31,5.14-6.75s-1.82-4.83-5.14-6.74a31.73,31.73,0,0,0-28.46,0c-3.32,1.91-5.15,4.31-5.15,6.74s1.83,4.83,5.15,6.75A29,29,0,0,0,229.68,82.64Z" style="fill:#2684B5"></path></g></g><g id="freepik--Window--inject-71"><g id="freepik--window--inject-71"><polygon points="455.54 207.29 450.69 210.09 329.52 140.13 334.36 137.33 455.54 207.29" style="fill:#fafafa"></polygon><polygon points="334.36 137.33 450.69 204.49 450.69 116.48 334.36 49.32 334.36 137.33" style="fill:#2684B5"></polygon><g style="opacity:0.8"><polygon points="334.36 137.33 450.69 204.49 450.69 116.48 334.36 49.32 334.36 137.33" style="fill:#fff"></polygon></g><polygon points="390.1 78.71 390.1 172.31 385.25 169.52 385.25 75.91 390.1 78.71" style="fill:#f0f0f0"></polygon><polygon points="392.52 77.3 390.1 78.71 390.1 172.31 392.52 170.91 392.52 77.3" style="fill:#e0e0e0"></polygon><polygon points="390.1 78.71 385.25 75.91 387.68 74.5 392.52 77.3 390.1 78.71" style="fill:#fff"></polygon><path d="M324.67,142.93l130.86,75.55V113.68L324.67,38.12Zm4.85-96.41,121.17,70v93.61l-121.17-70Z" style="fill:#f0f0f0"></path><polygon points="329.52 140.13 334.36 137.33 334.36 49.32 329.52 46.52 329.52 140.13" style="fill:#e0e0e0"></polygon><polygon points="324.67 38.12 329.52 35.33 460.38 110.88 455.54 113.68 324.67 38.12" style="fill:#fafafa"></polygon><polygon points="460.38 110.88 455.54 113.68 455.54 218.48 460.38 215.69 460.38 110.88" style="fill:#e0e0e0"></polygon><polygon points="390.1 81.5 385.27 78.71 385.27 81.5 390.1 84.3 390.1 81.5" style="fill:#e0e0e0"></polygon><polygon points="390.1 84.3 392.52 82.9 390.1 81.5 390.1 84.3" style="opacity:0.15"></polygon></g></g><g id="freepik--Character--inject-71"><g id="freepik--character--inject-71"><path d="M266.2,310.4h0a11.54,11.54,0,0,0,5.62,11.9l65.67,34.24.19,3.79,3,1.73-3.86,2.21-72.6-42Z" style="fill:#37474f"></path><path d="M334.78,381h0c.42-5.05-1.37-10.12-5.76-12.66l-59.19-34.17a5.56,5.56,0,0,0-8.26,3.89h0l3.95-23.55h0A11.31,11.31,0,0,0,271,326.15l61.28,35.42a2.93,2.93,0,0,0,4.59-2.4l.32-3.26Z" style="fill:#455a64"></path><path d="M333.49,219.3,350.27,229,278.7,274.25a19.06,19.06,0,0,0-8.61,12.95l-10.42,67.49a1.17,1.17,0,0,1-1.74.82h0c-.39-.22-.61-.66-.48-2.3l6-71.72c.34-4.05,2.92-8.88,7-12.15Z" style="fill:#455a64"></path><path d="M411.2,308.35l.41.95a7.32,7.32,0,0,1-3.06,9.24l-66,38.1,1.66-9.87-2.49,14.81,74-42.83Z" style="fill:#263238"></path><path d="M411.2,308.35l.16.69a5.52,5.52,0,0,1-7.86,7l-2.81-1.63-3.75,2.17,15.39,8.88,4.87-3.25Z" style="fill:#263238"></path><path d="M340.92,357.58,404.2,321a8.82,8.82,0,0,0,4-6.93v-3.72a8.85,8.85,0,0,0-4-6.93l-63.28-36.53a8.81,8.81,0,0,0-8,0l-63.27,36.53a8.85,8.85,0,0,0-4,6.93v3.78a8.82,8.82,0,0,0,4,6.92l63.28,36.52A8.82,8.82,0,0,0,340.92,357.58Z" style="fill:#2684B5"></path><path d="M340.92,357.58,404.2,321a8.82,8.82,0,0,0,4-6.93v-3.72a8.85,8.85,0,0,0-4-6.93l-63.28-36.53a8.81,8.81,0,0,0-8,0l-63.27,36.53a8.85,8.85,0,0,0-4,6.93v3.78a8.82,8.82,0,0,0,4,6.92l63.28,36.52A8.82,8.82,0,0,0,340.92,357.58Z" style="opacity:0.15"></path><path d="M339.75,358.09a6.18,6.18,0,0,0,1.17-.51L404.2,321a8.85,8.85,0,0,0,4-6.92v-3.73A9,9,0,0,0,405,304c1.42,1.27,1.17,3-.75,4.09l-63,36.35Z" style="opacity:0.30000000000000004"></path><path d="M265.65,310.37v3.77a8.84,8.84,0,0,0,4,6.93l63.28,36.52a8.91,8.91,0,0,0,6.82.49l1.47-13.67-.3.18a8.79,8.79,0,0,1-8,0l-63.28-36.53c-1.93-1.11-2.18-2.82-.75-4.09A9,9,0,0,0,265.65,310.37Z" style="opacity:0.15"></path><path d="M318.41,279.9l63.28,36.53a8.37,8.37,0,0,0,4.69.93,5.56,5.56,0,0,0,.7-.08l.15,0,.41-.07.06,0c.21,0,.42-.1.63-.16a6.63,6.63,0,0,0,1.36-.58l3.26-1.88a11.24,11.24,0,0,0,4.8-6.85L407.38,254a6.63,6.63,0,0,0,.08-1c0-.13,0-.26,0-.4a7.34,7.34,0,0,0-2.56-5l-.27-.21-.42-.27L340.92,210.6a8.85,8.85,0,0,0-8,0l-3.26,1.88a8.77,8.77,0,0,0-1.92,1.56c-.11.11-.22.24-.32.36a11.85,11.85,0,0,0-1.17,1.57c-.08.12-.15.24-.22.36s-.13.22-.18.32-.17.32-.25.48-.15.31-.21.47-.11.26-.16.4a1.34,1.34,0,0,0-.07.18c0,.12-.08.24-.11.36s-.09.3-.13.46-.05.22-.07.33l-9.63,53.72A7,7,0,0,0,318.41,279.9Z" style="fill:#2684B5"></path><path d="M318.41,279.9l63.28,36.53a8.37,8.37,0,0,0,4.69.93,5.56,5.56,0,0,0,.7-.08l.15,0,.41-.07.06,0c.21,0,.42-.1.63-.16a6.63,6.63,0,0,0,1.36-.58l3.26-1.88a11.24,11.24,0,0,0,4.8-6.85L407.38,254a6.63,6.63,0,0,0,.08-1c0-.13,0-.26,0-.4a7.34,7.34,0,0,0-2.56-5l-.27-.21-.42-.27L340.92,210.6a8.85,8.85,0,0,0-8,0l-3.26,1.88a8.77,8.77,0,0,0-1.92,1.56c-.11.11-.22.24-.32.36a11.85,11.85,0,0,0-1.17,1.57c-.08.12-.15.24-.22.36s-.13.22-.18.32-.17.32-.25.48-.15.31-.21.47-.11.26-.16.4a1.34,1.34,0,0,0-.07.18c0,.12-.08.24-.11.36s-.09.3-.13.46-.05.22-.07.33l-9.63,53.72A7,7,0,0,0,318.41,279.9Z" style="opacity:0.2"></path><path d="M396.13,260.48,386.5,314.2a3,3,0,0,1-4.81,2.24L318.41,279.9a7,7,0,0,1-3.18-6.85l9.63-53.72a3,3,0,0,1,4.81-2.23l63.27,36.53A7,7,0,0,1,396.13,260.48Z" style="fill:#2684B5"></path><path d="M396.13,260.48,386.5,314.2a3,3,0,0,1-4.81,2.24L318.41,279.9a7,7,0,0,1-3.18-6.85l9.63-53.72a3,3,0,0,1,4.81-2.23l63.27,36.53A7,7,0,0,1,396.13,260.48Z" style="opacity:0.25"></path><path d="M383.32,317.08a9.46,9.46,0,0,0,3.06.28,5.56,5.56,0,0,0,.7-.08c.19,0,.38,0,.56-.09l.06,0c.21,0,.42-.1.63-.16a6.63,6.63,0,0,0,1.36-.58l3.26-1.88a11.24,11.24,0,0,0,4.8-6.85L407.38,254a6.63,6.63,0,0,0,.08-1c0-.13,0-.26,0-.4a7.12,7.12,0,0,0-.44-2l-11.29,6.42a6.42,6.42,0,0,1,.41,3.44L386.5,314.2a3,3,0,0,1-3.16,2.78A.3.3,0,0,1,383.32,317.08Z" style="opacity:0.30000000000000004"></path><g id="freepik--character--inject-71"><path d="M240.79,385a51.26,51.26,0,0,0,11.71-12.68A75.15,75.15,0,0,0,261.34,355c4.74-13.84,13.91-42.23,16.12-46.85,3.16-6.59,24.14-18.57,34.57-25.36A240.46,240.46,0,0,1,336.53,269l22-4.17c1.52,7.5,2.78,13.31.31,21s-9.22,13.19-19.71,19.39c-8.67,5.14-33.83,12.45-36.43,13.62s-5.29,1-6.07,6-.29,7.23-5.09,13.73c-6.16,8.34-17.24,19.14-20.84,28a14.32,14.32,0,0,0-.15,6.05c1.7,7.64-4.87,7.92-9,12.69-2.22,2.6-3.63,5.37-6.73,7.1a21.82,21.82,0,0,1-9.2,2.58c-2.89.16-7.43-.69-9.21-2.6C233.7,389.34,238,387.11,240.79,385Z" style="fill:#ffa8a7"></path><path d="M335,269.18a334,334,0,0,0-31.59,18.56c-18.65,12.18-23.6,15.41-26.11,19.5s-12.89,38.11-12.89,38.11,3.78,8,15.06,8.29c0,0,11.32-12.81,13.68-15.91s3.47-7.63,4.15-12,1.78-4.94,16.09-9.43,34.89-11.71,43-24S363,270.17,363,270.17Z" style="fill:#2684B5"></path><path d="M335,269.18a334,334,0,0,0-31.59,18.56c-18.65,12.18-23.6,15.41-26.11,19.5s-12.89,38.11-12.89,38.11,3.78,8,15.06,8.29c0,0,11.32-12.81,13.68-15.91s3.47-7.63,4.15-12,1.78-4.94,16.09-9.43,34.89-11.71,43-24S363,270.17,363,270.17Z" style="opacity:0.5"></path><path d="M295.51,323.82c.12-6.28,7.65-10.89,14-15,1.49-1,1.41-.95,28.79-18.38-2.67-4.78-4-16.62-4-16.62l25.91,4.75a27.75,27.75,0,0,1-1.35,7.21c-2.47,7.67-9.22,13.19-19.71,19.39-4.78,2.83-14.36,6.84-22.43,10.07l-3.3,1.06c-14.31,4.49-15.41,5.06-16.09,9.43s-1.79,8.89-4.15,12c-.34.44-.85,1.06-1.49,1.8h0C295.86,332.64,295.44,327.42,295.51,323.82Z" style="opacity:0.1"></path><path d="M234,389.52a10.9,10.9,0,0,0,0,3.47c.72,2.23,4.28,5.27,9.85,5.79,5.1.47,9.66-.63,13.1-3.16s8.45-7.34,11.17-9.5c3.24-2.58,5.87-4.85,6.54-5.93s.24-3.54.24-3.54Z" style="fill:#263238"></path><path d="M256.27,393.82c3.33-2.81,12.44-10.15,15.55-12.88s4.63-5,.7-7.16a13.25,13.25,0,0,0-13.77.73c-4.28,3-21.05,14.31-21.05,14.31Z" style="fill:#37474f"></path><path d="M282.56,350.17,280.87,352c-3.93,1.22-16-4-16.2-7.29l.68-2.16c-2.56-.54-2.29,2.15-3,5.2a145.92,145.92,0,0,1-5.89,17.5c-1.22,2.2-2.53,4.36-3.94,6.45l-.43.63c-.41.59-.82,1.17-1.25,1.74q-.44.6-.9,1.2l-.62.79c-.49.61-1,1.21-1.51,1.81-.17.19-.33.39-.51.58-.55.63-1.12,1.24-1.71,1.84l-.42.43c-.63.63-1.28,1.24-1.94,1.84l-.3.26c-.72.64-1.45,1.27-2.22,1.87h0c-1.89,1.48-5.51,3.57-5.33,5.89v0s0,.06,0,.09a2.73,2.73,0,0,0,.81,1.54,4,4,0,0,0,.42.4c2,1.68,5.28,2.41,7.9,2.47.4,0,.79,0,1.15,0a22.8,22.8,0,0,0,5.9-1.13,20.72,20.72,0,0,0,3.3-1.44,13.66,13.66,0,0,0,4-3.65c.88-1.12,1.71-2.3,2.7-3.46,4.09-4.77,10.82-5.19,9.12-12.83h0a11.9,11.9,0,0,1-.22-1.33c0-.12,0-.24-.05-.35,0-.35-.05-.7-.05-1s0-.45,0-.67c1-5.25,6.8-11.26,10.22-14.49S282.56,350.17,282.56,350.17Z" style="fill:#2684B5"></path><path d="M282.56,350.17,280.87,352c-3.93,1.22-16-4-16.2-7.29l.68-2.16c-2.56-.54-2.29,2.15-3,5.2a145.92,145.92,0,0,1-5.89,17.5c-1.22,2.2-2.53,4.36-3.94,6.45l-.43.63c-.41.59-.82,1.17-1.25,1.74q-.44.6-.9,1.2l-.62.79c-.49.61-1,1.21-1.51,1.81-.17.19-.33.39-.51.58-.55.63-1.12,1.24-1.71,1.84l-.42.43c-.63.63-1.28,1.24-1.94,1.84l-.3.26c-.72.64-1.45,1.27-2.22,1.87h0c-1.89,1.48-5.51,3.57-5.33,5.89v0s0,.06,0,.09a2.73,2.73,0,0,0,.81,1.54,4,4,0,0,0,.42.4c2,1.68,5.28,2.41,7.9,2.47.4,0,.79,0,1.15,0a22.8,22.8,0,0,0,5.9-1.13,20.72,20.72,0,0,0,3.3-1.44,13.66,13.66,0,0,0,4-3.65c.88-1.12,1.71-2.3,2.7-3.46,4.09-4.77,10.82-5.19,9.12-12.83h0a11.9,11.9,0,0,1-.22-1.33c0-.12,0-.24-.05-.35,0-.35-.05-.7-.05-1s0-.45,0-.67c1-5.25,6.8-11.26,10.22-14.49S282.56,350.17,282.56,350.17Z" style="fill:#fff;opacity:0.8"></path><path d="M270.47,370.25a14,14,0,0,0,.3,2.37c1.29,5.8-2.28,7.44-5.86,10C262.8,377.63,266.18,372.58,270.47,370.25Z" style="fill:#2684B5"></path><path d="M270.47,370.25a14,14,0,0,0,.3,2.37c1.29,5.8-2.28,7.44-5.86,10C262.8,377.63,266.18,372.58,270.47,370.25Z" style="opacity:0.4"></path><path d="M239.66,385.54a13.58,13.58,0,0,1,4.5,1.28c3.87,1.94,5.53,3,7.09,7.29a23,23,0,0,1-5.53,1c-2.89.16-7.35-.62-9.47-2.86C233.83,389.72,237.19,387.33,239.66,385.54Z" style="fill:#2684B5"></path><path d="M280.66,354.73c3.43-3.23,1.9-4.56,1.9-4.56L280.87,352c-1.34.42-3.63.08-6.07-.68-5,8.36-6.54,13.17-6.57,16.61,0,3.84,1.13,6.53-.58,9.41s-6,3.35-9,7.21-3.57,6-11.6,6.54S236.76,389,237.68,387c-1.29,1.08-2.36,2.29-2.26,3.58v0s0,.06,0,.09a2.73,2.73,0,0,0,.81,1.54,4,4,0,0,0,.42.4c2,1.68,5.28,2.41,7.9,2.47.4,0,.79,0,1.15,0a22.8,22.8,0,0,0,5.9-1.13,20.72,20.72,0,0,0,3.3-1.44,13.66,13.66,0,0,0,4-3.65c.88-1.12,1.71-2.3,2.7-3.46,4.09-4.77,10.82-5.19,9.12-12.83h0a11.9,11.9,0,0,1-.22-1.33c0-.12,0-.24-.05-.35,0-.35-.05-.7-.05-1s0-.45,0-.67C271.47,364,277.24,358,280.66,354.73Z" style="opacity:0.1"></path><path d="M242.47,381.56c5.05.07,8,1.87,11.25,5.15a8.53,8.53,0,0,1,2.55,7.11,17.32,17.32,0,0,1-13.75,2.68c-7.54-1.6-8.61-6.41-8.61-6.41A10,10,0,0,1,242.47,381.56Z" style="fill:#455a64"></path><path d="M261.63,398.07a58,58,0,0,0,11.75-12.67,73.07,73.07,0,0,0,8.61-17c4.88-13.61,14.71-40.82,16.92-45.43,4.2-8.79,34.57-25.82,34.57-25.82-2.34-3.69-7.26-13.55-7.74-17.57l50.42.55c0,10-1.16,17.48-4,23.24-3.83,7.79-6.68,12.88-17.51,18-9.11,4.32-28.41,9.78-31,10.94s-5.29,1-6.07,6-.3,7.24-5.09,13.74c-6.16,8.34-17.27,18.94-20.87,27.77a14.59,14.59,0,0,0,0,6.1c1.7,7.65-5,8.07-9.11,12.84-2.23,2.6-3.63,5.37-6.74,7.1a21.77,21.77,0,0,1-9.19,2.58c-2.9.16-7.36-.62-9.48-2.86C254.32,402.65,259.31,399.9,261.63,398.07Z" style="fill:#ffa8a7"></path><path d="M376.16,280.13s3,25.95-11.31,37-42.52,14.73-44.36,19.83-1.4,8.54-5.64,14.47c-4.06,5.68-15.27,15.79-15.27,15.79s-10.82-.51-15-6.08c0,0,9.75-31.42,13.17-38.87s35.7-25.08,35.7-25.08-5.73-6.46-8-18.45S376.16,280.13,376.16,280.13Z" style="fill:#2684B5"></path><path d="M376.16,280.13s3,25.95-11.31,37-42.52,14.73-44.36,19.83-1.4,8.54-5.64,14.47c-4.06,5.68-15.27,15.79-15.27,15.79s-10.82-.51-15-6.08c0,0,9.75-31.42,13.17-38.87s35.7-25.08,35.7-25.08-5.73-6.46-8-18.45S376.16,280.13,376.16,280.13Z" style="opacity:0.43"></path><path d="M254.42,403.12a10.84,10.84,0,0,0,0,3.46c.72,2.23,4.28,5.27,9.85,5.79a18.84,18.84,0,0,0,13.1-3.16c3.45-2.53,8.45-7.33,11.17-9.5,3.24-2.57,5.87-4.84,6.54-5.92s.24-3.54.24-3.54Z" style="fill:#263238"></path><path d="M276.71,407.41c3.33-2.81,12.44-10.14,15.55-12.87s4.63-5,.7-7.17a13.27,13.27,0,0,0-13.77.73c-4.28,3-21.05,14.31-21.05,14.31Z" style="fill:#37474f"></path><path d="M303.44,363.59l-1.95,1.84c-3.93,1.22-15.74-4.09-15.94-7.34l.69-2.17c-2.56-.53-2.3,2.16-3,5.21s-4.5,14.8-6,17.81c-4,7.16-8.94,13.89-15.61,19.13-2.32,1.83-7.31,4.58-4.5,7.54,2.12,2.24,6.58,3,9.48,2.86a21.77,21.77,0,0,0,9.19-2.58c3.11-1.73,4.51-4.5,6.74-7.1,4.09-4.77,10.81-5.19,9.11-12.84a14.06,14.06,0,0,1-.32-3.39c1-5.25,6.8-11.26,10.22-14.49S303.44,363.59,303.44,363.59Z" style="fill:#2684B5"></path><path d="M303.44,363.59l-1.95,1.84c-3.93,1.22-15.74-4.09-15.94-7.34l.69-2.17c-2.56-.53-2.3,2.16-3,5.21s-4.5,14.8-6,17.81c-4,7.16-8.94,13.89-15.61,19.13-2.32,1.83-7.31,4.58-4.5,7.54,2.12,2.24,6.58,3,9.48,2.86a21.77,21.77,0,0,0,9.19-2.58c3.11-1.73,4.51-4.5,6.74-7.1,4.09-4.77,10.81-5.19,9.11-12.84a14.06,14.06,0,0,1-.32-3.39c1-5.25,6.8-11.26,10.22-14.49S303.44,363.59,303.44,363.59Z" style="fill:#fff;opacity:0.8"></path><path d="M291.35,383.59a13.73,13.73,0,0,0,.3,2.36c1.29,5.81-2.27,7.45-5.85,10C283.69,391,287.07,385.91,291.35,383.59Z" style="fill:#2684B5"></path><path d="M291.35,383.59a13.73,13.73,0,0,0,.3,2.36c1.29,5.81-2.27,7.45-5.85,10C283.69,391,287.07,385.91,291.35,383.59Z" style="opacity:0.4"></path><path d="M260.54,398.88a13.64,13.64,0,0,1,4.51,1.28c3.87,1.94,5.53,2.95,7.09,7.29a23.2,23.2,0,0,1-5.53,1c-2.9.16-7.36-.62-9.48-2.86C254.71,403.06,258.08,400.66,260.54,398.88Z" style="fill:#2684B5"></path><path d="M303.44,363.59l-1.95,1.84a9.34,9.34,0,0,1-4.61-.29c-6.34,9.32-7.71,13.34-7.57,17,.13,3.46,1,7.07-.77,9s-6.61,4.17-10.16,8.62a16.23,16.23,0,0,1-16.53,5.51c-4-1-4.51-2.74-4.29-3.95-1.25,1.32-1.87,2.78-.43,4.3,2.12,2.24,6.58,3,9.48,2.86a21.77,21.77,0,0,0,9.19-2.58c3.11-1.73,4.51-4.5,6.74-7.1,4.09-4.77,10.81-5.19,9.11-12.84a14.06,14.06,0,0,1-.32-3.39c1-5.25,6.8-11.26,10.22-14.49S303.44,363.59,303.44,363.59Z" style="opacity:0.1"></path><path d="M262.91,395.15c5,.08,8,1.87,11.25,5.15a8.53,8.53,0,0,1,2.55,7.11A17.32,17.32,0,0,1,263,410.09c-7.54-1.6-8.61-6.41-8.61-6.41A10,10,0,0,1,262.91,395.15Z" style="fill:#455a64"></path><path d="M347.85,214.6c-5.75-1.11-10.52-.93-14.36,4.7s-11.08,29.75-14.9,40.27c-1,2.88,10.81,14.65,15.63,7.2C342.94,253.26,347.85,214.6,347.85,214.6Z" style="fill:#f28f8f"></path><path d="M325.63,275l6.81-5.75,1.22-9.1-.41-6.21c-6.25-4.8-7-11.48-4-17.41a53.87,53.87,0,0,1,8.42-12.17c4.18-5,8.56-8.81,10.16-9.71l5.8,1.27,16,3.76,6.9,2.34c-3.8,4.66-5.14,13.05-3.13,20.69s6,8.69,6,8.69l.72,4.24a100.43,100.43,0,0,1-1,12.82c-.93,5.42-2.08,11.89-2.08,11.89s.4,8.89-.4,11.78a6.41,6.41,0,0,1-4.11-3.68c-4.9,4.37-24,9.49-35.26,2.55C326.09,284.13,325.63,275,325.63,275Z" style="fill:#37474f"></path><path d="M353.63,217.12a37.12,37.12,0,0,0-15.94,19.82c-3.09,9.18-1.63,29.67-2.65,32.24s0,13.18-8.15,21.33c-7.28,7.28-10.82,8.37-13,9.64s-2.88-1.34-7.43-4.29a32,32,0,0,0-9.32-4l-3.77,2.48s-1.78-.9,1.94-4,17.82-13.32,21.4-17.61-1.54-14.08-1.54-14.08,6.57-18.58,10.3-29.06c5.07-14.24,10.25-16.76,17.17-16.44s11,.63,11,.63Z" style="fill:#2684B5"></path><polygon points="324.49 258.07 326.64 238.62 321.3 258.07 324.49 258.07" style="opacity:0.1"></polygon><path d="M316.23,291.88c-2.41-1.67-6.49-7-14.76-6.32-2.68,2.06-5,3.81-6.18,4.81-3.72,3.09-1.94,4-1.94,4l3.77-2.48a32,32,0,0,1,9.32,4c4.55,2.95,5.23,5.56,7.43,4.29s5.74-2.36,13-9.64a22.3,22.3,0,0,0,1.62-1.8C325.36,292,319,293.77,316.23,291.88Z" style="fill:#ebebeb"></path><path d="M353.63,217.12l.06-5.86a40.54,40.54,0,0,0-5.14,1.26,20.85,20.85,0,0,0-5.21,2.7c-3.45,2.44-9,10.3-10.9,16.85s-1.81,20.87-.66,28.53,1.64,17.49,1.64,17.49a18.49,18.49,0,0,0,1.41-3.68,29.67,29.67,0,0,0,.82-5.21c.47-4.13.19-22.62,3.29-31.79S347.3,220.79,353.63,217.12Z" style="fill:#ebebeb"></path><path d="M309.76,263c-2.15-.53-3.41,1.92-3.09,5.9s3,11.29,9.05,9.17S309.76,263,309.76,263Z" style="fill:#f28f8f"></path><path d="M329.87,255.61c-.37-1-1.49-1.78-3.33-2.3a21.07,21.07,0,0,0-14.57,2c-1.64,1-2.49,2.08-2.59,3.1h-.06c.2,6.6,2.38,14,5.26,17.84l.06.08s0,0,0,.05h0a5,5,0,0,0,2.14,1.54,12.3,12.3,0,0,0,11.05-1.5,5,5,0,0,0,1.66-2.05h0a.14.14,0,0,0,0-.06l0-.1c1.75-4.49,1.89-12.18.32-18.59Z" style="fill:#f5f5f5"></path><path d="M326.54,253.31c4.26,1.2,4.64,4,.86,6.33a21.07,21.07,0,0,1-14.57,2c-4.26-1.2-4.64-4-.86-6.32A21.07,21.07,0,0,1,326.54,253.31Z" style="fill:#fafafa"></path><path d="M325.28,254.6c3.4.7,3.65,2.55.56,4.13a20.8,20.8,0,0,1-11.75,1.6c-3.4-.71-3.65-2.56-.56-4.14A20.8,20.8,0,0,1,325.28,254.6Z" style="fill:#e6e6e6"></path><path d="M325.62,257.1a6.28,6.28,0,0,1,1.74.59,6.34,6.34,0,0,1-1.52,1,20.8,20.8,0,0,1-11.75,1.6,6.26,6.26,0,0,1-1.74-.6,6.34,6.34,0,0,1,1.52-1A20.8,20.8,0,0,1,325.62,257.1Z" style="fill:#37474f"></path><path d="M387,283c2.2-9.17,3.78-16.85,6-37.1,1.49-13.69-2.09-19.65-16.49-23.92-11.48,13-.73,27.14-.73,27.14l-3.16,25.3s-32.29-2.41-34.8-3.87c-2.07-1.21-4.46-8.29-6.88-8.18a41.69,41.69,0,0,1,0,4.73c.06,1-5.18,3.32-10.48,3.13s-10.52-3.87-9.3.83c.49,1.88,1.4,5.39,4.33,7.68s13.38,2.94,16.36,4.19c0,0,26.24,5.78,37.12,7.79C377.77,292.33,384.36,294,387,283Z" style="fill:#ffa8a7"></path><path d="M351.08,164.68c18.47-6.61,31.37,3.22,34.35,14.93,2,7.81-1,16.32-5.56,22a44.71,44.71,0,0,1-5.16,6c-1.85,1.68-3.66,3.07-4.91,3.24l.28-5.25a18,18,0,0,1-8.87,1.79l-4.76-.2c-11.29-.46-15.86-11.29-20.3-24.49C331.8,169.76,342.45,167.76,351.08,164.68Z" style="fill:#263238"></path><path d="M347,172.54c-2.79,1.45-7.58,8.05-8,22.29-.36,12.06,3.39,15.24,5.3,16.21s5.72.64,9.43.22l-.06,5.86c-5.78,6.62,5.79,9.81,13.47,6.51,1.1-.47,2.51-1.78,2.54-2.72l.54-17.66a5.07,5.07,0,0,0,6-1.14c2.73-3.08,3.65-7.67,1.41-10.2s-6.06-1.68-7.95.82c0,0-4.89-.17-12.47-4.88S348.11,177.93,347,172.54Z" style="fill:#ffa8a7"></path><path d="M369.6,192.73v5.7h0a4,4,0,0,1-4.05-4.05v-6.81Z" style="fill:#263238"></path><path d="M341.07,191.18a1.55,1.55,0,1,0,1.55-1.54A1.55,1.55,0,0,0,341.07,191.18Z" style="fill:#263238"></path><path d="M342.62,203.2a1.55,1.55,0,1,0,1.55-1.54A1.54,1.54,0,0,0,342.62,203.2Z" style="fill:#f28f8f"></path><path d="M352.48,192.37a1.72,1.72,0,1,0,1.73-1.71A1.73,1.73,0,0,0,352.48,192.37Z" style="fill:#263238"></path><path d="M340.56,188l3.5-1.29a1.79,1.79,0,0,0-2.34-1.14A2,2,0,0,0,340.56,188Z" style="fill:#263238"></path><polygon points="349 189.67 348.95 199.56 344.16 198 349 189.67" style="fill:#f28f8f"></polygon><path d="M353.69,211.26c3.91-.3,12-2.16,13.41-5.25a8.15,8.15,0,0,1-3,3.87c-2.49,1.92-10.44,3.93-10.44,3.93Z" style="fill:#f28f8f"></path><path d="M360.6,198.66c.16,1.55-1.26,3-3.18,3.16s-3.6-.9-3.76-2.45,1.27-3,3.18-3.15S360.44,197.11,360.6,198.66Z" style="fill:#f28f8f"></path><path d="M329.18,200l15,3.88c.6.23.74-.91,0-1.15l-15-5.46Z" style="fill:#2684B5"></path><path d="M331.68,199l12.48,4.11c.19.08.21.51,0,.46-.43-.1-12.79-3.55-12.79-3.55Z" style="fill:#f28f8f"></path><path d="M332.71,198.6l-3.53-1.29V200l2.64.68A3.65,3.65,0,0,0,332.71,198.6Z" style="opacity:0.2"></path><circle cx="327.63" cy="197.93" r="3.73" style="fill:#2684B5"></circle><path d="M329.82,197.93a2.19,2.19,0,1,1-2.19-2.19A2.19,2.19,0,0,1,329.82,197.93Z" style="fill:#f28f8f"></path><path d="M363.28,156.05a32.86,32.86,0,0,0-7.26-4.19,14.59,14.59,0,0,0-10.45,0,11.78,11.78,0,0,0-6.93,7.63,12.89,12.89,0,0,0,3,11.35c3.36,3.94,7.86,6.16,12.73,7.63,5.59,1.68,11.33,3.22,17.26,2.88,4.56-.26,9.29-1.83,12.57-5.12,2.86-2.88,2.41-8.54-.65-11.16-2-1.71-4.78-2.15-7.35-2.8a36,36,0,0,1-10.27-4.47C365,157.25,364.15,156.65,363.28,156.05Z" style="fill:#2684B5"></path><path d="M383.51,165.08c-2-1.71-4.78-2.15-7.35-2.8l-1.23-.35h0c6.68,2.75,5.85,7.48,2.08,10.27s-13.18,4-24.25-.45c-13.82-5.6-13.05-14.64-11-17.41a11.12,11.12,0,0,0-3.15,5.16,12.89,12.89,0,0,0,3,11.35c3.36,3.94,7.86,6.16,12.73,7.63,5.59,1.68,11.33,3.22,17.26,2.88,4.56-.26,9.29-1.83,12.57-5.12C387,173.36,386.57,167.7,383.51,165.08Z" style="opacity:0.1"></path><path d="M370,159.67a8.42,8.42,0,0,0-2.94-.59l-3.47-.71-.55,2.71h0a2.47,2.47,0,0,0,1,2.31,7.87,7.87,0,0,0,7,1.41,2.56,2.56,0,0,0,1.85-1.72h0l.55-2.71Z" style="fill:#37474f"></path><path d="M364.67,160.69a7.86,7.86,0,0,0,7,1.4c2.14-.73,2.51-2.53.81-4a7.87,7.87,0,0,0-7-1.41C363.33,157.38,363,159.18,364.67,160.69Z" style="fill:#455a64"></path><path d="M369.83,214.6c9.26,5,17.85,9.87,20.74,14s3.9,6.54,3.55,14.92-6.1,40.59-8.06,48-2.46,23.93-21.66,31.74-25.25,10.36-28.24,11.16c-3.72,1-5.17-3-5.17-3l3.26-1.06c-1.33-5.23-4-14.61-16.13-22.7-1.8-1.21-.36-3,.41-3.76,2-1.93,4.23-3.16,7.43-6,5.05-4.41,11-14,11-14a6.73,6.73,0,0,0,2.95-2.33c2.87-4.14,4.17-9,2.21-10.26l-1.4-.19s1-13.52,9.59-25S369.55,229,369.83,214.6Z" style="fill:#2684B5"></path><path d="M372,291l-35.1-7s-1.79,2.91-4.25,6.27Z" style="opacity:0.1"></path><path d="M340.68,271.24c.77-4.9,9.44-16.28,16.32-21.73s17.07-15.67,19.69-21.75c2.7-6.27,3.33-8.7.34-11.26a27.31,27.31,0,0,0-7.13-4.12l-.07,2.22s-1.63,8.16-6.23,13.94-21.88,17.4-24.66,42.36" style="fill:#ebebeb"></path><path d="M342.08,271.43s26.41-.2,27.52,0,3.71-19.91,3.71-19.91-4.32,15.11-5.48,16.63S342.08,271.43,342.08,271.43Z" style="opacity:0.1"></path><path d="M341.72,326c-.74-7.87-7.29-15.61-11.2-20.47s-3.41-7.81-1.06-11.12A35.22,35.22,0,0,1,326,298c-3.2,2.8-5.46,4-7.43,6-.77.75-2.21,2.55-.41,3.76,12.12,8.09,14.8,17.47,16.13,22.7L331,331.49s1.45,4,5.17,3a53.3,53.3,0,0,0,5.34-1.89A23.72,23.72,0,0,0,341.72,326Z" style="fill:#ebebeb"></path></g><path d="M425.51,344.81l-15-68L403.25,283l19.58,62.84a1.56,1.56,0,0,0,.6.67h0A1.44,1.44,0,0,0,425.51,344.81Z" style="fill:#37474f"></path><path d="M404.92,267.75l-57.79,45.87A19.06,19.06,0,0,0,340,327l-6.85,71a1.15,1.15,0,0,0,.58,1.1h0a1.16,1.16,0,0,0,1.73-.81l11.32-66.76a19.08,19.08,0,0,1,8.61-13l49.29-31.17a16,16,0,0,0,1.39-26Z" style="fill:#455a64"></path><path d="M412.22,311.81h0c1.71,3.95.66,8.56-3.06,10.71l-59,34.06a4.62,4.62,0,0,1-6.85-4.75h0l-4.53,26.73h0a16.29,16.29,0,0,1,7.79-11.25l65.58-37.86a6.73,6.73,0,0,1,9.54,3.16h0Z" style="fill:#37474f"></path></g></g><g id="freepik--Table--inject-71"><g id="freepik--table--inject-71"><g id="freepik--table--inject-71"><path d="M196.58,342.44a2.36,2.36,0,0,0-1.39-1.94,7.41,7.41,0,0,0-6.71,0,2.36,2.36,0,0,0-1.39,1.94l1.39,27.43h0a1.71,1.71,0,0,0,1,1.34,5.3,5.3,0,0,0,4.75,0,1.67,1.67,0,0,0,1-1.34h0Z" style="fill:#455a64"></path><path d="M188.48,340.5a7.41,7.41,0,0,1,6.71,0,2.36,2.36,0,0,1,1.39,1.94L196,354.16a48.39,48.39,0,0,1-8,6.62l-.93-18.34A2.36,2.36,0,0,1,188.48,340.5Z" style="fill:#263238"></path><path d="M76.76,342.44a2.36,2.36,0,0,1,1.39-1.94,7.41,7.41,0,0,1,6.71,0,2.36,2.36,0,0,1,1.39,1.94l-1.39,27.43h0a1.67,1.67,0,0,1-1,1.34,5.3,5.3,0,0,1-4.75,0,1.67,1.67,0,0,1-1-1.34h0Z" style="fill:#455a64"></path><path d="M78.15,340.5a7.41,7.41,0,0,1,6.71,0,2.36,2.36,0,0,1,1.39,1.94l-1,18.77a49.58,49.58,0,0,1-7.91-6.35l-.63-12.42A2.36,2.36,0,0,1,78.15,340.5Z" style="fill:#263238"></path><path d="M131.6,363.44A2.36,2.36,0,0,1,133,361.5a7.41,7.41,0,0,1,6.71,0,2.36,2.36,0,0,1,1.39,1.94l-1.39,27.43h0a1.66,1.66,0,0,1-1,1.33,5.23,5.23,0,0,1-4.75,0,1.7,1.7,0,0,1-1-1.33h0Z" style="fill:#455a64"></path><path d="M132.16,374.44l-.56-11A2.36,2.36,0,0,1,133,361.5a7.41,7.41,0,0,1,6.71,0,2.36,2.36,0,0,1,1.39,1.94l-.56,11Q136.35,374.59,132.16,374.44Z" style="fill:#263238"></path><path d="M68.3,325.29h.06c0-10.06,6.58-20.11,19.87-27.78,26.57-15.35,69.66-15.35,96.23,0,13.29,7.67,19.88,17.72,19.87,27.78h.06v5.39h0c-.16,9.93-6.82,19.82-19.93,27.39-26.57,15.34-69.66,15.34-96.23,0-13.12-7.57-19.77-17.46-19.93-27.39h0Z" style="fill:#2684B5"></path><path d="M184.46,297.51c26.57,15.34,26.57,40.21,0,55.56s-69.66,15.34-96.23,0-26.57-40.22,0-55.56S157.89,282.16,184.46,297.51Z" style="fill:#2684B5"></path><g style="opacity:0.6000000000000001"><path d="M184.46,297.51c26.57,15.34,26.57,40.21,0,55.56s-69.66,15.34-96.23,0-26.57-40.22,0-55.56S157.89,282.16,184.46,297.51Z" style="fill:#fff"></path></g></g><g id="freepik--Bookv--inject-71"><polygon points="129.28 337.09 154.27 351.46 188.97 331.42 163.99 317.06 129.28 337.09" style="fill:#455a64"></polygon><path d="M154.51,350.54l-24.25-14a8.5,8.5,0,0,0-.11-5.29l24.12,13.89A19.93,19.93,0,0,1,154.51,350.54Z" style="fill:#f5f5f5"></path><path d="M153.24,343.48a4.31,4.31,0,0,1,1.94,3.37v3.94c0,1.24-.87,1.75-1.94,1.13l-24-13.85v-1L153,350.71c.64.38,1.17.07,1.16-.67v-3.65a2.61,2.61,0,0,0-1.17-2l-23.67-13.62v-1.11Z" style="fill:#263238"></path><path d="M129.28,329.63l34.71-20,23.95,13.84a4.34,4.34,0,0,1,1.95,3.38v3.94a1.38,1.38,0,0,1-.57,1.26l-34.71,20a1.35,1.35,0,0,0,.57-1.26v-3.94a4.32,4.32,0,0,0-1.95-3.37Z" style="fill:#455a64"></path><path d="M154.61,344.93a3.92,3.92,0,0,1,.58,1.92v3.94a1.35,1.35,0,0,1-.57,1.26l34.71-20a1.38,1.38,0,0,0,.57-1.26v-3.94a4,4,0,0,0-.57-1.92Z" style="fill:#37474f"></path></g><g id="freepik--Pot--inject-71"><g style="opacity:0.05"><path d="M99.74,307c-6,3.44-6,9,0,12.46s15.63,3.44,21.59,0,6-9,0-12.46S105.7,303.59,99.74,307Z"></path></g><path d="M120,314c5.19-5.29,8.23-18.52,3.17-22.72H97.45c-5.06,4.2-2,17.42,3.17,22.72l.14.14.18.18a4.76,4.76,0,0,0,.47.41l.12.1.39.3c.22.15.45.3.67.43a17.12,17.12,0,0,0,15.46,0h0a7.15,7.15,0,0,0,.68-.44l.36-.27.16-.12a5.92,5.92,0,0,0,.45-.41l.21-.2Z" style="fill:#ebebeb"></path><path d="M99.68,289.62c-5.87,3.39-5.87,8.89,0,12.29s15.41,3.39,21.28,0,5.88-8.9,0-12.29S105.56,286.23,99.68,289.62Z" style="fill:#fafafa"></path><path d="M103.85,292c-3.58,2.06-3.58,5.41,0,7.47a14.28,14.28,0,0,0,13,0c3.57-2.06,3.57-5.41,0-7.47A14.28,14.28,0,0,0,103.85,292Z" style="fill:#ebebeb"></path><path d="M116.8,295.57a14.34,14.34,0,0,0-13,0,6,6,0,0,0-2.14,2,6,6,0,0,0,2.14,2,14.28,14.28,0,0,0,13,0,6,6,0,0,0,2.14-2A6,6,0,0,0,116.8,295.57Z" style="fill:#e0e0e0"></path><path d="M104.64,297.54a29.24,29.24,0,0,1-4.68-6.23c-2.17-3.82-2.57-8.95-1.45-9.58s5.67,4.48,5.67,4.48a27.73,27.73,0,0,1-.48-6.53c.19-3.4,1-6.5,2-7.12s3.16,3.67,4.09,6.78,1.5,5.68,1.5,5.68a49.05,49.05,0,0,1,1.67-7.17c1.14-3.23,2.17-4,3-3.64s1.32,1.82,1.56,6.13a42.56,42.56,0,0,1-.2,6.16s1.61-1.76,3.39-3.47c2-1.88,2.79-2.14,3.35-1.78s.72,3.28-2.31,8.76a31,31,0,0,1-5.72,7.53S111.8,300.24,104.64,297.54Z" style="fill:#2684B5"></path><g style="opacity:0.30000000000000004"><path d="M104.64,297.54a29.24,29.24,0,0,1-4.68-6.23c-2.17-3.82-2.57-8.95-1.45-9.58s5.67,4.48,5.67,4.48a27.73,27.73,0,0,1-.48-6.53c.19-3.4,1-6.5,2-7.12s3.16,3.67,4.09,6.78,1.5,5.68,1.5,5.68a49.05,49.05,0,0,1,1.67-7.17c1.14-3.23,2.17-4,3-3.64s1.32,1.82,1.56,6.13a42.56,42.56,0,0,1-.2,6.16s1.61-1.76,3.39-3.47c2-1.88,2.79-2.14,3.35-1.78s.72,3.28-2.31,8.76a31,31,0,0,1-5.72,7.53S111.8,300.24,104.64,297.54Z"></path></g></g></g></g><g id="freepik--Thermostat--inject-71"><g id="freepik--thermostat--inject-71"><path d="M142.46,165.46a.92.92,0,0,0-.35-.81l-2.1-1.22a.88.88,0,0,0-.9.08l-29.17,16.84a2.8,2.8,0,0,0-1.26,2.19v27.15a.88.88,0,0,0,.37.82l2.08,1.21a.88.88,0,0,0,.9-.08L141.2,194.8a2.82,2.82,0,0,0,1.26-2.19Z" style="fill:#fafafa"></path><path d="M112,181.57l29.17-16.84c.69-.41,1.26-.08,1.26.73v27.15a2.82,2.82,0,0,1-1.26,2.19L112,211.64c-.7.4-1.27.07-1.27-.73V183.75A2.78,2.78,0,0,1,112,181.57Z" style="fill:#f0f0f0"></path><path d="M110.77,183.76v27.15a.92.92,0,0,0,.31.78l-2-1.18a.86.86,0,0,1-.38-.82V182.54a2.42,2.42,0,0,1,.38-1.24l2.09,1.2A2.52,2.52,0,0,0,110.77,183.76Z" style="fill:#e0e0e0"></path><path d="M138.66,174.89h0c-.35-.21-3.54-2-3.74-2.15a.78.78,0,0,0-.78.08l-18.8,10.85a2.48,2.48,0,0,0-1.12,1.94v16a.75.75,0,0,0,.33.72l3.78,2.19h0a.8.8,0,0,0,.78-.08l16.09-9.3,2.71-1.56a2.41,2.41,0,0,0,1.12-1.93h0v-16h0A.76.76,0,0,0,138.66,174.89Z" style="fill:#2684B5"></path><g style="opacity:0.15"><path d="M138.66,174.89h0c-.35-.21-3.54-2-3.74-2.15a.78.78,0,0,0-.78.08l-18.8,10.85a2.48,2.48,0,0,0-1.12,1.94v16a.75.75,0,0,0,.33.72l3.78,2.19h0a.8.8,0,0,0,.78-.08l16.09-9.3,2.71-1.56a2.41,2.41,0,0,0,1.12-1.93h0v-16h0A.76.76,0,0,0,138.66,174.89Z"></path></g><path d="M118.36,204.53l0,0-3.78-2.19a.75.75,0,0,1-.33-.72v-16a2.26,2.26,0,0,1,.33-1.11l3.79,2.19a2.2,2.2,0,0,0-.33,1.11v16A.76.76,0,0,0,118.36,204.53Z" style="fill:#2684B5"></path><g style="opacity:0.30000000000000004"><path d="M118.36,204.53l0,0-3.78-2.19a.75.75,0,0,1-.33-.72v-16a2.26,2.26,0,0,1,.33-1.11l3.79,2.19a2.2,2.2,0,0,0-.33,1.11v16A.76.76,0,0,0,118.36,204.53Z"></path></g><path d="M119.1,185.85,137.91,175c.62-.35,1.11-.07,1.11.64v16a2.42,2.42,0,0,1-1.11,1.92L119.1,204.43c-.61.35-1.11.06-1.11-.64v-16A2.48,2.48,0,0,1,119.1,185.85Z" style="fill:#2684B5"></path><path d="M131.07,184.6a3.09,3.09,0,0,0-3.12.31,9.74,9.74,0,0,0-4.41,7.63,3.1,3.1,0,0,0,1.29,2.85l1.11.64a3.11,3.11,0,0,0,3.12-.3,9.78,9.78,0,0,0,4.41-7.64,3.09,3.09,0,0,0-1.29-2.85Z" style="fill:#fafafa"></path><path d="M123.94,190.22a7.8,7.8,0,0,0-.4,2.32,3.1,3.1,0,0,0,1.29,2.85l1.11.64a3.11,3.11,0,0,0,3.12-.3,7.89,7.89,0,0,0,1.81-1.5Z" style="fill:#e0e0e0"></path><path d="M124.65,193.18a9.75,9.75,0,0,1,4.41-7.64c2.43-1.4,4.41-.26,4.41,2.55a9.78,9.78,0,0,1-4.41,7.64C126.62,197.13,124.65,196,124.65,193.18Z" style="fill:#f0f0f0"></path><path d="M131.25,186.82a2.17,2.17,0,0,0-2.19.22,6.89,6.89,0,0,0-3.12,5.39,2.17,2.17,0,0,0,.92,2l.54.31a2.17,2.17,0,0,0,2.19-.21,6.9,6.9,0,0,0,3.12-5.4,2.18,2.18,0,0,0-.91-2Z" style="fill:#2684B5"></path><g style="opacity:0.30000000000000004"><path d="M126.05,191.44a4.92,4.92,0,0,0-.11,1,2.17,2.17,0,0,0,.92,2l.54.31a2.17,2.17,0,0,0,2.19-.21,5.64,5.64,0,0,0,.81-.6Z"></path></g><path d="M126.48,192.75a6.88,6.88,0,0,1,3.11-5.4c1.72-1,3.12-.19,3.12,1.8a6.9,6.9,0,0,1-3.12,5.4C127.87,195.54,126.48,194.73,126.48,192.75Z" style="fill:#2684B5"></path><g style="opacity:0.1"><path d="M126.48,192.75a6.88,6.88,0,0,1,3.11-5.4c1.72-1,3.12-.19,3.12,1.8a6.9,6.9,0,0,1-3.12,5.4C127.87,195.54,126.48,194.73,126.48,192.75Z"></path></g><path d="M131.68,182.51l-.69-.4c-.05,0-.13,0-.19.11l-1.33,2.29.69.39a2.81,2.81,0,0,1,1.42,0l.16-2.25A.18.18,0,0,0,131.68,182.51Z" style="fill:#f0f0f0"></path><path d="M131.74,182.69l-.16,2.25a2.81,2.81,0,0,0-1.42,0l1.33-2.29C131.6,182.43,131.76,182.48,131.74,182.69Z" style="fill:#e0e0e0"></path></g><g id="freepik--thermostat-bubble--inject-71"><path d="M119.11,124.27l-17.76,10.25,7.31,14.53a1.37,1.37,0,0,0,.55.59l18.34,10.59a1.43,1.43,0,0,0,2.09-.79l7.82-24.58Z" style="fill:#2684B5"></path><path d="M119.11,124.27l-17.76,10.25,7.31,14.53a1.37,1.37,0,0,0,.55.59l18.34,10.59a1.43,1.43,0,0,0,2.09-.79l7.82-24.58Z" style="opacity:0.30000000000000004"></path><path d="M119.7,145.12l17.76-10.26-7.82,24.58a1.43,1.43,0,0,1-2.09.79,1.35,1.35,0,0,1-.54-.59Z" style="fill:#2684B5"></path><path d="M170.94,39.44l-.09,0c-1.46-.86-14.76-8.54-15.58-9a3.21,3.21,0,0,0-3.29.34L73.57,76a10.4,10.4,0,0,0-4.66,8.13v66.73a3.2,3.2,0,0,0,1.38,3L86.05,163h0a3.3,3.3,0,0,0,3.25-.34l67.14-38.77,11.31-6.53a10.11,10.11,0,0,0,4.66-8h0V42.51A3.14,3.14,0,0,0,170.94,39.44Z" style="fill:#2684B5"></path><g style="opacity:0.15"><path d="M170.94,39.44l-.09,0c-1.46-.86-14.76-8.54-15.58-9a3.21,3.21,0,0,0-3.29.34L73.57,76a10.4,10.4,0,0,0-4.66,8.13v66.73a3.2,3.2,0,0,0,1.38,3L86.05,163h0a3.3,3.3,0,0,0,3.25-.34l67.14-38.77,11.31-6.53a10.11,10.11,0,0,0,4.66-8h0V42.51A3.14,3.14,0,0,0,170.94,39.44Z"></path></g><path d="M86.26,163.06l-.21-.08-15.76-9.11a3.2,3.2,0,0,1-1.38-3V84.12a9.33,9.33,0,0,1,1.38-4.63l15.8,9.11a9.42,9.42,0,0,0-1.38,4.62V160C84.71,161.55,85.31,162.63,86.26,163.06Z" style="fill:#2684B5"></path><g style="opacity:0.30000000000000004"><path d="M86.26,163.06l-.21-.08-15.76-9.11a3.2,3.2,0,0,1-1.38-3V84.12a9.33,9.33,0,0,1,1.38-4.63l15.8,9.11a9.42,9.42,0,0,0-1.38,4.62V160C84.71,161.55,85.31,162.63,86.26,163.06Z"></path></g><path d="M89.34,85.16l78.48-45.32c2.56-1.47,4.63-.28,4.63,2.67v66.8a10.2,10.2,0,0,1-4.63,8L89.34,162.64c-2.56,1.47-4.63.28-4.63-2.68V93.17A10.2,10.2,0,0,1,89.34,85.16Z" style="fill:#2684B5"></path><path d="M139.72,92.92c-2.85-1.64-6.79-1.4-11.14,1.11-8.72,5-15.79,17.28-15.79,27.35,0,5,1.77,8.55,4.62,10.2l4,2.28c2.86,1.66,6.81,1.43,11.17-1.09,8.72-5,15.79-17.28,15.79-27.34,0-5-1.77-8.55-4.61-10.2Z" style="fill:#fafafa"></path><path d="M114.2,113.07a27.5,27.5,0,0,0-1.41,8.31c0,5,1.77,8.55,4.62,10.2l4,2.28c2.86,1.66,6.81,1.43,11.17-1.09A27.72,27.72,0,0,0,139,127.4Z" style="fill:#e0e0e0"></path><path d="M116.74,123.66c0-10.07,7.07-22.32,15.79-27.35s15.79-1,15.79,9.12-7.07,22.31-15.79,27.34S116.74,133.72,116.74,123.66Z" style="fill:#f0f0f0"></path><path d="M140.39,100.88c-2-1.16-4.79-1-7.86.78-6.16,3.56-11.16,12.21-11.16,19.32,0,3.56,1.26,6.06,3.29,7.22l1.93,1.12c2,1.16,4.79,1,7.85-.78,6.16-3.55,11.16-12.2,11.16-19.32,0-3.54-1.25-6-3.26-7.2Z" style="fill:#2684B5"></path><g style="opacity:0.30000000000000004"><path d="M121.76,117.44a18.18,18.18,0,0,0-.39,3.54c0,3.56,1.26,6.06,3.29,7.22l1.93,1.12c2,1.16,4.79,1,7.85-.78a17.75,17.75,0,0,0,2.89-2.11Z"></path></g><path d="M123.29,122.1c0-7.11,5-15.76,11.15-19.32s11.16-.67,11.16,6.44-5,15.77-11.16,19.32S123.29,129.22,123.29,122.1Z" style="fill:#2684B5"></path><g style="opacity:0.1"><path d="M123.29,122.1c0-7.11,5-15.76,11.15-19.32s11.16-.67,11.16,6.44-5,15.77-11.16,19.32S123.29,129.22,123.29,122.1Z"></path></g><path d="M141.92,85.45,139.44,84c-.19-.11-.45,0-.67.38L134,92.6,136.48,94a9.68,9.68,0,0,1,5.07.13l.58-8C142.16,85.76,142.07,85.54,141.92,85.45Z" style="fill:#f0f0f0"></path><path d="M142.13,86.11l-.58,8a9.68,9.68,0,0,0-5.07-.13l4.77-8.2C141.64,85.16,142.19,85.33,142.13,86.11Z" style="fill:#e0e0e0"></path><path d="M130.88,76.45a5.48,5.48,0,0,1-2.3,4.38c-1.27.74-2.3,0-2.3-1.73a5.5,5.5,0,0,1,2.3-4.39C129.85,74,130.88,74.75,130.88,76.45Z" style="fill:#455a64"></path><path d="M120.11,84.41c.52,1.25,0,3.36-1.16,4.72s-2.52,1.44-3,.19,0-3.35,1.16-4.71S119.6,83.16,120.11,84.41Z" style="fill:#455a64"></path><path d="M110.81,97.21c1,.59,1,2.48.17,4.23s-2.3,2.69-3.24,2.1-1-2.48-.17-4.23S109.87,96.63,110.81,97.21Z" style="fill:#455a64"></path><path d="M104.59,112.64c1.2-.17,1.86,1.18,1.47,3s-1.69,3.47-2.89,3.64-1.87-1.17-1.48-3S103.38,112.82,104.59,112.64Z" style="fill:#455a64"></path><ellipse cx="153.28" cy="87.44" rx="3.53" ry="2" transform="translate(12.81 194.25) rotate(-66.95)" style="fill:#455a64"></ellipse><path d="M149.42,79.47c-.94,1.68-2.4,2.42-3.24,1.65s-.78-2.75.17-4.42,2.39-2.42,3.24-1.65S150.36,77.8,149.42,79.47Z" style="fill:#455a64"></path><path d="M141.24,74.7c-.51,1.84-1.87,3.32-3,3.3s-1.68-1.53-1.16-3.37,1.87-3.32,3-3.3S141.76,72.86,141.24,74.7Z" style="fill:#455a64"></path><path d="M94.69,101.67a1.8,1.8,0,0,1-.93-.25,2.84,2.84,0,0,1-1.18-2.6,6.92,6.92,0,0,1,2.94-5.57,2.17,2.17,0,0,1,2.25-.14A2.85,2.85,0,0,1,99,95.71,6.89,6.89,0,0,1,96,101.28,2.66,2.66,0,0,1,94.69,101.67Zm2.15-7.84a1.77,1.77,0,0,0-.83.26,6,6,0,0,0-2.45,4.73,2,2,0,0,0,.69,1.76,1.28,1.28,0,0,0,1.27-.14A6,6,0,0,0,98,95.71,2,2,0,0,0,97.29,94,.85.85,0,0,0,96.84,93.83Z" style="fill:#fafafa"></path><path d="M95.77,92.1a.49.49,0,0,1-.49-.49v-2.3a.49.49,0,0,1,.49-.49.48.48,0,0,1,.48.49v2.3A.48.48,0,0,1,95.77,92.1Z" style="fill:#fafafa"></path><path d="M93.14,94.45a.49.49,0,0,1-.38-.18l-.88-1.11a.49.49,0,1,1,.76-.61l.88,1.11a.49.49,0,0,1-.07.69A.5.5,0,0,1,93.14,94.45Z" style="fill:#fafafa"></path><path d="M90.09,98.57a.49.49,0,0,1-.07-1l1.32-.19a.5.5,0,0,1,.55.42.49.49,0,0,1-.41.55l-1.32.18Z" style="fill:#fafafa"></path><path d="M90.09,103.49a.49.49,0,0,1-.34-.14.49.49,0,0,1,0-.69l1.55-1.57a.49.49,0,0,1,.69,0,.48.48,0,0,1,0,.68l-1.55,1.57A.49.49,0,0,1,90.09,103.49Z" style="fill:#fafafa"></path><path d="M92.26,106.21a.63.63,0,0,1-.19,0,.5.5,0,0,1-.26-.64L92.88,103a.49.49,0,1,1,.9.37l-1.07,2.58A.49.49,0,0,1,92.26,106.21Z" style="fill:#fafafa"></path><path d="M95.77,105.71a.49.49,0,0,1-.49-.49V103a.48.48,0,0,1,.49-.48.47.47,0,0,1,.48.48v2.22A.48.48,0,0,1,95.77,105.71Z" style="fill:#fafafa"></path><path d="M99.27,102.16a.49.49,0,0,1-.38-.18L98,100.89a.48.48,0,0,1,.08-.68.49.49,0,0,1,.68.08l.87,1.09a.49.49,0,0,1-.08.68A.5.5,0,0,1,99.27,102.16Z" style="fill:#fafafa"></path><path d="M100,97.14a.49.49,0,0,1-.48-.41.5.5,0,0,1,.42-.56l1.44-.2a.48.48,0,0,1,.55.41.48.48,0,0,1-.41.55l-1.45.21Z" style="fill:#fafafa"></path><path d="M99.89,93.58a.45.45,0,0,1-.34-.14.49.49,0,0,1,0-.68l1.56-1.57a.48.48,0,1,1,.69.68l-1.56,1.57A.45.45,0,0,1,99.89,93.58Z" style="fill:#fafafa"></path><path d="M98.2,91.87a.57.57,0,0,1-.18,0,.5.5,0,0,1-.27-.64l1.08-2.58a.48.48,0,1,1,.89.37l-1.07,2.58A.49.49,0,0,1,98.2,91.87Z" style="fill:#fafafa"></path><path d="M161.83,68.21a.34.34,0,0,1-.34-.34V52.44a.34.34,0,0,1,.34-.34.34.34,0,0,1,.34.34V67.87A.34.34,0,0,1,161.83,68.21Z" style="fill:#fafafa"></path><path d="M166.78,61.45l-10-1.93a.32.32,0,0,1-.27-.39.34.34,0,0,1,.33-.28l10.09,1.94a.34.34,0,0,1-.06.67Z" style="fill:#fafafa"></path><path d="M156.6,62.08a.34.34,0,0,1-.25-.11.34.34,0,0,1,0-.48l2.12-2L158,57a.33.33,0,0,1,.26-.4h0a.35.35,0,0,1,.38.26l.61,2.89L156.83,62A.3.3,0,0,1,156.6,62.08Z" style="fill:#fafafa"></path><path d="M165.39,63.77a.35.35,0,0,1-.34-.27l-.6-2.89,2.39-2.28a.29.29,0,0,1,.23-.1.36.36,0,0,1,.25.11.34.34,0,0,1,0,.48l-2.12,2,.53,2.52a.33.33,0,0,1-.26.4Z" style="fill:#fafafa"></path><path d="M156.82,67.25a.37.37,0,0,1-.2-.07.36.36,0,0,1-.13-.23.34.34,0,0,1,.06-.25l10-13.5a.35.35,0,0,1,.27-.14.38.38,0,0,1,.21.07.36.36,0,0,1,.13.22.4.4,0,0,1-.06.26l-10,13.5A.38.38,0,0,1,156.82,67.25Z" style="fill:#fafafa"></path><path d="M158.22,67.87a.35.35,0,0,1-.28-.39l.49-2.87-1.77.34h0a.35.35,0,0,1-.38-.27.36.36,0,0,1,.05-.25.37.37,0,0,1,.22-.15l2.74-.53-.65,3.84a.33.33,0,0,1-.34.28Z" style="fill:#fafafa"></path><path d="M165.05,52.72a.35.35,0,0,1,.35-.28.34.34,0,0,1,.32.39l-.48,2.87,1.77-.34h0a.34.34,0,0,1,.38.27.31.31,0,0,1-.05.25.34.34,0,0,1-.22.15l-2.73.53Z" style="fill:#fafafa"></path><path d="M160,54.64a.34.34,0,0,1,.2-.62.36.36,0,0,1,.2.06l1.37,1,1.5-2.8a.34.34,0,0,1,.46-.14.29.29,0,0,1,.16.2.34.34,0,0,1,0,.26L162,56.06Z" style="fill:#fafafa"></path><path d="M160.15,68.23a.29.29,0,0,1-.16,0,.33.33,0,0,1-.14-.46l1.87-3.48,2,1.42a.34.34,0,0,1,.08.48.32.32,0,0,1-.27.14.36.36,0,0,1-.2-.06l-1.37-1-1.5,2.8A.32.32,0,0,1,160.15,68.23Z" style="fill:#fafafa"></path></g></g></svg>