<svg width="507" height="106" viewBox="0 0 507 106" fill="none" xmlns="http://www.w3.org/2000/svg">
<path d="M115.07 40.7517C111.838 40.7517 108.888 41.9989 106.499 44.3546V28.2803L101.441 28.8346V73.5932H105.937L106.218 70.8217C108.466 73.0389 111.417 74.286 114.648 74.286C122.516 74.286 127.293 67.7731 127.293 57.3803C127.293 46.8489 122.797 40.7517 115.07 40.7517ZM121.954 57.3803C121.954 63.0617 120.549 69.9903 113.946 69.9903C110.995 69.9903 108.466 68.466 106.499 65.6946V49.8974C108.326 47.5417 110.574 45.186 114.367 45.186C119.425 45.186 121.954 49.2046 121.954 57.3803Z" fill="#24292D"/>
<path d="M154.41 65.9714V51.1442C154.41 44.0771 150.757 40.6128 143.451 40.6128C140.22 40.6128 136.988 41.3057 133.335 42.6914L132.633 42.9685L134.038 46.9871L134.74 46.7099C137.972 45.6014 140.641 45.0471 142.889 45.0471C147.526 45.0471 149.352 46.8485 149.352 51.2828V53.4999H144.154C135.443 53.4999 130.385 57.3799 130.385 64.1699C130.385 70.2671 134.459 74.1471 140.782 74.1471C144.716 74.1471 147.807 72.7614 150.195 69.9899C150.898 72.2071 152.584 73.4542 155.253 74.0085L155.956 74.1471L157.22 70.4057L156.518 70.1285C154.972 69.7128 154.41 69.0199 154.41 65.9714ZM149.352 57.6571V65.0014C147.526 68.3271 144.997 69.9899 141.484 69.9899C137.691 69.9899 135.724 67.9114 135.724 64.1699C135.724 59.8742 138.815 57.6571 144.716 57.6571H149.352V57.6571Z" fill="#24292D"/>
<path d="M170.989 69.5746C170.427 69.8517 169.865 69.8517 169.163 69.8517C168.039 69.8517 167.477 69.436 167.477 67.6346V28.2803L162.419 28.8346V67.6346C162.419 71.7917 164.807 74.286 168.741 74.286C170.006 74.286 171.551 74.0089 172.675 73.316L173.378 73.0389L171.832 69.0203L170.989 69.5746Z" fill="#24292D"/>
<path d="M192.064 68.6045C190.518 69.4359 189.254 69.8516 187.708 69.8516C185.039 69.8516 183.915 68.4659 183.915 65.2788V45.7402H191.502L192.204 41.4445H184.055V33.5459L178.997 34.1002V41.3059H173.799V45.6016H178.997V65.4173C178.997 71.0987 182.088 74.2859 187.427 74.2859C189.956 74.2859 192.204 73.593 194.452 72.2073L195.014 71.7916L192.907 68.0502L192.064 68.6045Z" fill="#24292D"/>
<path d="M222.272 70.4057C220.867 69.8514 220.164 69.0199 220.164 66.1099V51.1442C220.164 44.0771 216.511 40.6128 209.205 40.6128C205.974 40.6128 202.742 41.3057 199.089 42.6914L198.387 42.9685L199.792 46.9871L200.494 46.7099C203.726 45.6014 206.395 45.0471 208.643 45.0471C213.28 45.0471 215.106 46.8485 215.106 51.2828V53.4999H209.908C201.197 53.4999 196.139 57.3799 196.139 64.1699C196.139 70.2671 200.213 74.1471 206.536 74.1471C210.47 74.1471 213.561 72.7614 215.949 69.9899C216.652 72.2071 218.338 73.4542 221.007 74.0085L221.71 74.1471L222.974 70.4057H222.272ZM215.106 57.6571V65.0014C213.28 68.3271 210.751 69.9899 207.238 69.9899C203.445 69.9899 201.478 67.9114 201.478 64.1699C201.478 59.8742 204.569 57.6571 210.47 57.6571H215.106V57.6571Z" fill="#24292D"/>
<path d="M230.614 73.3677C232.019 73.3677 233.003 72.2591 233.003 71.012C233.003 69.6262 231.879 68.6562 230.614 68.6562C229.209 68.6562 228.226 69.6262 228.226 71.012C228.226 72.2591 229.209 73.3677 230.614 73.3677Z" fill="#24292D"/>
<path d="M244.19 42.5532H237.867V74.4246H244.19V42.5532Z" fill="#24292D"/>
<path d="M240.958 39.2275C243.487 39.2275 245.173 37.5646 245.173 35.2089C245.173 32.8532 243.347 31.0518 240.958 31.0518C238.57 31.0518 236.743 32.7146 236.743 35.2089C236.743 37.5646 238.57 39.2275 240.958 39.2275Z" fill="#24292D"/>
<path d="M265.264 41.1675C256.413 41.1675 250.793 47.6803 250.793 57.796C250.793 68.0503 256.272 74.4246 265.264 74.4246C273.975 74.4246 279.736 67.9118 279.736 57.796C279.596 47.4032 274.256 41.1675 265.264 41.1675ZM272.851 57.796C272.851 65.556 270.322 69.2975 265.124 69.2975C260.066 69.2975 257.396 65.4175 257.396 57.796C257.396 50.1746 260.066 46.2946 265.124 46.2946C270.322 46.2946 272.851 50.1746 272.851 57.796Z" fill="#24292D"/>
<g opacity="0.5">
<path d="M110.152 81.076V95.4874H108.747L108.607 94.1017C107.764 95.0717 106.78 95.7645 105.375 95.7645C102.846 95.7645 101.441 93.686 101.441 90.3603C101.441 87.1731 102.987 84.956 105.516 84.956C106.78 84.956 107.764 85.5103 108.326 86.2031V80.7988L110.152 81.076ZM108.466 92.8545V87.7274C107.764 86.896 107.061 86.3417 105.937 86.3417C104.251 86.3417 103.268 87.7274 103.268 90.4988C103.268 93.2703 104.251 94.5174 105.797 94.5174C106.921 94.5174 107.764 93.8245 108.466 92.8545Z" fill="#24292D"/>
<path d="M121.673 90.9145H114.929C115.07 93.4088 116.334 94.3788 117.88 94.3788C119.004 94.3788 119.706 94.1017 120.69 93.4088L121.392 94.3788C120.409 95.2103 119.285 95.626 117.739 95.626C114.789 95.626 113.103 93.5474 113.103 90.3602C113.103 87.1731 114.789 84.8174 117.458 84.8174C120.268 84.8174 121.673 86.7574 121.673 89.9445C121.814 90.3602 121.673 90.776 121.673 90.9145ZM120.128 89.5288C120.128 87.4502 119.285 86.2031 117.599 86.2031C116.194 86.2031 115.21 87.1731 115.07 89.6674H120.268V89.5288H120.128Z" fill="#24292D"/>
<path d="M128.558 95.4872H126.591L122.938 85.2329H124.764L127.574 94.1015L130.384 85.2329H132.211L128.558 95.4872Z" fill="#24292D"/>
<path d="M141.905 90.9145H135.161C135.302 93.4088 136.566 94.3788 138.112 94.3788C139.236 94.3788 139.938 94.1017 140.922 93.4088L141.624 94.3788C140.641 95.2103 139.517 95.626 137.971 95.626C135.021 95.626 133.335 93.5474 133.335 90.3602C133.335 87.1731 135.021 84.8174 137.69 84.8174C140.5 84.8174 141.905 86.7574 141.905 89.9445C141.905 90.3602 141.905 90.776 141.905 90.9145ZM140.219 89.5288C140.219 87.4502 139.376 86.2031 137.69 86.2031C136.285 86.2031 135.302 87.1731 135.161 89.6674H140.36V89.5288H140.219Z" fill="#24292D"/>
<path d="M144.997 93.5475V81.0761L146.683 80.9375V93.5475C146.683 94.1018 146.824 94.3789 147.386 94.3789C147.667 94.3789 147.807 94.3789 148.088 94.2403L148.51 95.3489C148.088 95.4875 147.667 95.6261 147.105 95.6261C145.7 95.7646 144.997 95.0718 144.997 93.5475Z" fill="#24292D"/>
<path d="M159.046 90.3604C159.046 93.5475 157.36 95.7647 154.41 95.7647C151.459 95.7647 149.773 93.6861 149.773 90.3604C149.773 87.1732 151.459 84.9561 154.41 84.9561C157.36 84.9561 159.046 87.0346 159.046 90.3604ZM151.6 90.3604C151.6 93.1318 152.583 94.3789 154.41 94.3789C156.236 94.3789 157.22 93.1318 157.22 90.3604C157.22 87.5889 156.236 86.3418 154.41 86.3418C152.724 86.3418 151.6 87.5889 151.6 90.3604Z" fill="#24292D"/>
<path d="M170.708 90.3603C170.708 93.5475 169.303 95.7646 166.634 95.7646C165.51 95.7646 164.526 95.3489 163.824 94.5175V99.5061L162.138 99.6446V85.2332H163.543L163.683 86.6189C164.526 85.5103 165.51 84.9561 166.774 84.9561C169.584 84.9561 170.708 87.0346 170.708 90.3603ZM168.882 90.3603C168.882 87.5889 168.039 86.3418 166.353 86.3418C165.229 86.3418 164.386 87.1732 163.683 88.0046V93.1318C164.245 93.9632 165.088 94.5175 166.072 94.5175C168.039 94.3789 168.882 93.1318 168.882 90.3603Z" fill="#24292D"/>
<path d="M183.212 95.6258C182.509 97.8429 181.245 99.3672 178.435 99.6444L178.294 98.3972C180.402 97.9815 180.964 97.1501 181.666 95.4872H181.104L177.592 85.2329H179.418L182.369 94.3786L185.179 85.2329H186.865L183.212 95.6258Z" fill="#24292D"/>
<path d="M197.122 90.3604C197.122 93.5475 195.436 95.7647 192.485 95.7647C189.535 95.7647 187.849 93.6861 187.849 90.3604C187.849 87.1732 189.535 84.9561 192.485 84.9561C195.436 84.9561 197.122 87.0346 197.122 90.3604ZM189.675 90.3604C189.675 93.1318 190.659 94.3789 192.485 94.3789C194.312 94.3789 195.295 93.1318 195.295 90.3604C195.295 87.5889 194.312 86.3418 192.485 86.3418C190.659 86.3418 189.675 87.5889 189.675 90.3604Z" fill="#24292D"/>
<path d="M207.94 95.4872H206.535L206.395 93.8243C205.552 95.0715 204.568 95.7644 203.163 95.7644C201.337 95.7644 200.213 94.6558 200.213 92.5772V85.2329H201.899V92.4386C201.899 93.9629 202.461 94.5172 203.585 94.5172C204.709 94.5172 205.692 93.6858 206.254 92.7158V85.3715H207.94V95.4872V95.4872Z" fill="#24292D"/>
<path d="M217.213 85.0948L216.932 86.7576C216.651 86.6191 216.37 86.6191 215.948 86.6191C214.543 86.6191 213.841 87.5891 213.419 89.5291V95.4876H211.733V85.2334H213.138L213.279 87.4505C213.841 85.9262 214.824 85.0948 216.089 85.0948C216.51 84.9562 216.932 85.0948 217.213 85.0948Z" fill="#24292D"/>
<path d="M231.544 86.0646L230.701 87.1732C229.999 86.6189 229.296 86.3418 228.453 86.3418C226.767 86.3418 225.643 87.5889 225.643 90.3603C225.643 93.1318 226.767 94.2403 228.453 94.2403C229.296 94.2403 229.999 93.9632 230.701 93.4089L231.544 94.5175C230.701 95.2103 229.577 95.6261 228.453 95.6261C225.643 95.6261 223.957 93.6861 223.957 90.3603C223.957 87.0346 225.643 84.9561 228.453 84.9561C229.718 84.9561 230.701 85.3718 231.544 86.0646Z" fill="#24292D"/>
<path d="M241.941 94.6561L241.52 95.7647C240.536 95.6261 239.834 95.2104 239.553 94.2404C238.85 95.3489 237.726 95.7647 236.462 95.7647C234.354 95.7647 233.23 94.5175 233.23 92.5775C233.23 90.3604 234.916 89.2518 237.726 89.2518H239.412V88.4203C239.412 86.8961 238.71 86.3418 237.164 86.3418C236.321 86.3418 235.478 86.4803 234.354 86.8961L233.933 85.6489C235.197 85.2332 236.321 84.9561 237.445 84.9561C239.974 84.9561 241.098 86.2032 241.098 88.2818V93.1318C241.098 94.1018 241.379 94.3789 241.941 94.6561ZM239.412 92.8546V90.3604H237.867C235.9 90.3604 234.916 91.0532 234.916 92.5775C234.916 93.8246 235.619 94.5175 236.883 94.5175C238.007 94.5175 238.85 93.9632 239.412 92.8546Z" fill="#24292D"/>
<path d="M250.371 85.0948L250.09 86.7576C249.809 86.6191 249.528 86.6191 249.107 86.6191C247.702 86.6191 246.999 87.5891 246.578 89.5291V95.4876H244.892V85.2334H246.297L246.437 87.4505C246.999 85.9262 247.983 85.0948 249.247 85.0948C249.669 84.9562 250.09 85.0948 250.371 85.0948Z" fill="#24292D"/>
<path d="M260.066 90.9145H253.322C253.462 93.4088 254.727 94.3788 256.272 94.3788C257.396 94.3788 258.099 94.1017 259.082 93.4088L259.785 94.3788C258.801 95.2103 257.677 95.626 256.132 95.626C253.181 95.626 251.495 93.5474 251.495 90.3602C251.495 87.1731 253.181 84.8174 255.851 84.8174C258.661 84.8174 260.066 86.7574 260.066 89.9445C260.206 90.3602 260.206 90.776 260.066 90.9145ZM258.52 89.5288C258.52 87.4502 257.677 86.2031 255.991 86.2031C254.586 86.2031 253.603 87.1731 253.462 89.6674H258.661V89.5288H258.52Z" fill="#24292D"/>
<path d="M271.026 90.9145H264.282C264.422 93.4088 265.687 94.3788 267.232 94.3788C268.356 94.3788 269.059 94.1017 270.042 93.4088L270.745 94.3788C269.761 95.2103 268.637 95.626 267.092 95.626C264.141 95.626 262.455 93.5474 262.455 90.3602C262.455 87.1731 264.141 84.8174 266.811 84.8174C269.621 84.8174 271.026 86.7574 271.026 89.9445C271.026 90.3602 271.026 90.776 271.026 90.9145ZM269.34 89.5288C269.34 87.4502 268.497 86.2031 266.811 86.2031C265.406 86.2031 264.422 87.1731 264.282 89.6674H269.48V89.5288H269.34Z" fill="#24292D"/>
<path d="M279.596 85.0948L279.315 86.7576C279.034 86.6191 278.753 86.6191 278.331 86.6191C276.926 86.6191 276.224 87.5891 275.802 89.5291V95.4876H274.116V85.2334H275.521L275.662 87.4505C276.224 85.9262 277.207 85.0948 278.472 85.0948C278.893 84.9562 279.315 85.0948 279.596 85.0948Z" fill="#24292D"/>
</g>
<path d="M60.6967 41.583V63.4773L41.4482 74.4244V95.903L79.5237 74.1473V30.7744L60.6967 41.583Z" fill="#8625D2"/>
<path d="M40.4642 7.21729L2.38867 28.973L21.2157 39.643L40.4642 28.6959L59.5722 39.643L78.5397 28.973L40.4642 7.21729Z" fill="#8625D2"/>
<path d="M2.38867 7.21729H21.2157V14.423L2.38867 24.9544V7.21729Z" fill="#8625D2"/>
<path d="M79.2421 95.9028H60.415V88.8356L79.2421 78.3042V95.9028Z" fill="#8625D2"/>
<path d="M20.2323 63.4774V41.5831L1.40527 30.9131V74.1474L39.4808 95.9031V74.4245L20.2323 63.4774Z" fill="#8625D2"/>
</svg>
