<svg width="300" height="100" viewBox="0 0 300 100" fill="none" xmlns="http://www.w3.org/2000/svg">
<path d="M119.289 35.1934C115.898 35.1934 112.801 36.5023 110.295 38.9746V22.105L104.986 22.6867V69.6597H109.705L110 66.7512C112.359 69.078 115.455 70.3869 118.847 70.3869C127.104 70.3869 132.117 63.5518 132.117 52.6447C132.117 41.5922 127.399 35.1934 119.289 35.1934ZM126.514 52.6447C126.514 58.6072 125.04 65.8786 118.109 65.8786C115.013 65.8786 112.359 64.2789 110.295 61.3704V44.7916C112.211 42.3194 114.571 39.8471 118.552 39.8471C123.86 39.8471 126.514 44.0645 126.514 52.6447Z" fill="white"/>
<path d="M160.576 61.6611V46.1003C160.576 38.6835 156.742 35.0479 149.074 35.0479C145.683 35.0479 142.292 35.775 138.458 37.2293L137.721 37.5201L139.195 41.7375L139.932 41.4467C143.324 40.2832 146.125 39.7015 148.484 39.7015C153.35 39.7015 155.267 41.5921 155.267 46.2458V48.5726H149.812C140.67 48.5726 135.361 52.6446 135.361 59.7705C135.361 66.1693 139.637 70.2413 146.273 70.2413C150.401 70.2413 153.645 68.787 156.152 65.8784C156.889 68.2053 158.659 69.5141 161.46 70.0958L162.197 70.2413L163.525 66.3147L162.787 66.0239C161.165 65.5876 160.576 64.8605 160.576 61.6611ZM155.267 52.9354V60.6431C153.35 64.1333 150.696 65.8784 147.01 65.8784C143.029 65.8784 140.964 63.697 140.964 59.7705C140.964 55.2622 144.208 52.9354 150.401 52.9354H155.267V52.9354Z" fill="white"/>
<path d="M177.975 65.4423C177.385 65.7332 176.795 65.7332 176.058 65.7332C174.879 65.7332 174.289 65.2969 174.289 63.4063V22.105L168.98 22.6867V63.4063C168.98 67.7692 171.487 70.3869 175.616 70.3869C176.943 70.3869 178.565 70.096 179.744 69.3689L180.482 69.078L178.86 64.8606L177.975 65.4423Z" fill="white"/>
<path d="M200.092 64.4244C198.47 65.297 197.142 65.7333 195.521 65.7333C192.719 65.7333 191.539 64.279 191.539 60.9342V40.4289H199.502L200.239 35.9207H191.687V27.6313L186.379 28.2131V35.7753H180.923V40.2835H186.379V61.0796C186.379 67.0421 189.622 70.387 195.226 70.387C197.88 70.387 200.239 69.6598 202.598 68.2056L203.188 67.7693L200.976 63.8427L200.092 64.4244Z" fill="white"/>
<path d="M231.794 66.3147C230.32 65.733 229.582 64.8604 229.582 61.8065V46.1003C229.582 38.6835 225.749 35.0479 218.081 35.0479C214.69 35.0479 211.298 35.775 207.465 37.2293L206.727 37.5201L208.202 41.7375L208.939 41.4467C212.331 40.2832 215.132 39.7015 217.491 39.7015C222.357 39.7015 224.274 41.5921 224.274 46.2458V48.5726H218.818C209.676 48.5726 204.368 52.6446 204.368 59.7705C204.368 66.1693 208.644 70.2413 215.28 70.2413C219.408 70.2413 222.652 68.787 225.159 65.8784C225.896 68.2053 227.666 69.5141 230.467 70.0958L231.204 70.2413L232.531 66.3147H231.794ZM224.274 52.9354V60.6431C222.357 64.1333 219.703 65.8784 216.017 65.8784C212.036 65.8784 209.971 63.697 209.971 59.7705C209.971 55.2622 213.215 52.9354 219.408 52.9354H224.274V52.9354Z" fill="white"/>
<path d="M240.55 69.423C242.024 69.423 243.056 68.2596 243.056 66.9508C243.056 65.4965 241.877 64.4785 240.55 64.4785C239.075 64.4785 238.043 65.4965 238.043 66.9508C238.043 68.2596 239.075 69.423 240.55 69.423Z" fill="white"/>
<path d="M254.797 37.084H248.161V70.5323H254.797V37.084Z" fill="white"/>
<path d="M251.405 33.5939C254.059 33.5939 255.829 31.8488 255.829 29.3765C255.829 26.9042 253.912 25.0137 251.405 25.0137C248.898 25.0137 246.981 26.7588 246.981 29.3765C246.981 31.8488 248.898 33.5939 251.405 33.5939Z" fill="white"/>
<path d="M276.914 35.6299C267.625 35.6299 261.727 42.465 261.727 53.0812C261.727 63.8428 267.477 70.5324 276.914 70.5324C286.056 70.5324 292.102 63.6973 292.102 53.0812C291.954 42.1741 286.351 35.6299 276.914 35.6299ZM284.876 53.0812C284.876 61.2251 282.222 65.1516 276.767 65.1516C271.458 65.1516 268.657 61.0796 268.657 53.0812C268.657 45.0827 271.458 41.0107 276.767 41.0107C282.222 41.0107 284.876 45.0827 284.876 53.0812Z" fill="white"/>
<g opacity="0.5">
<path d="M114.127 77.5125V92.637H112.653L112.505 91.1827C111.621 92.2007 110.588 92.9278 109.114 92.9278C106.46 92.9278 104.985 90.7464 104.985 87.2562C104.985 83.9113 106.607 81.5845 109.261 81.5845C110.588 81.5845 111.621 82.1662 112.21 82.8933V77.2217L114.127 77.5125ZM112.358 89.8739V84.493C111.621 83.6205 110.883 83.0388 109.704 83.0388C107.934 83.0388 106.902 84.493 106.902 87.4016C106.902 90.3101 107.934 91.619 109.556 91.619C110.736 91.619 111.621 90.8918 112.358 89.8739Z" fill="white"/>
<path d="M126.218 87.8378H119.141C119.288 90.4555 120.615 91.4735 122.237 91.4735C123.417 91.4735 124.154 91.1826 125.186 90.4555L125.923 91.4735C124.891 92.346 123.711 92.7823 122.09 92.7823C118.993 92.7823 117.224 90.6009 117.224 87.2561C117.224 83.9112 118.993 81.439 121.795 81.439C124.744 81.439 126.218 83.475 126.218 86.8198C126.366 87.2561 126.218 87.6923 126.218 87.8378ZM124.596 86.3835C124.596 84.2021 123.711 82.8932 121.942 82.8932C120.468 82.8932 119.435 83.9112 119.288 86.5289H124.744V86.3835H124.596Z" fill="white"/>
<path d="M133.443 92.6366H131.379L127.545 81.875H129.462L132.411 91.1824L135.36 81.875H137.277L133.443 92.6366Z" fill="white"/>
<path d="M147.452 87.8378H140.374C140.521 90.4555 141.848 91.4735 143.47 91.4735C144.65 91.4735 145.387 91.1826 146.419 90.4555L147.157 91.4735C146.124 92.346 144.945 92.7823 143.323 92.7823C140.226 92.7823 138.457 90.6009 138.457 87.2561C138.457 83.9112 140.226 81.439 143.028 81.439C145.977 81.439 147.452 83.475 147.452 86.8198C147.452 87.2561 147.452 87.6923 147.452 87.8378ZM145.682 86.3835C145.682 84.2021 144.797 82.8932 143.028 82.8932C141.554 82.8932 140.521 83.9112 140.374 86.5289H145.83V86.3835H145.682Z" fill="white"/>
<path d="M150.696 90.6011V77.5126L152.466 77.3672V90.6011C152.466 91.1828 152.613 91.4736 153.203 91.4736C153.498 91.4736 153.645 91.4736 153.94 91.3282L154.383 92.4916C153.94 92.637 153.498 92.7825 152.908 92.7825C151.434 92.9279 150.696 92.2008 150.696 90.6011Z" fill="white"/>
<path d="M165.441 87.2561C165.441 90.601 163.671 92.9278 160.575 92.9278C157.478 92.9278 155.709 90.7464 155.709 87.2561C155.709 83.9113 157.478 81.5845 160.575 81.5845C163.671 81.5845 165.441 83.7659 165.441 87.2561ZM157.626 87.2561C157.626 90.1647 158.658 91.4736 160.575 91.4736C162.492 91.4736 163.524 90.1647 163.524 87.2561C163.524 84.3476 162.492 83.0387 160.575 83.0387C158.805 83.0387 157.626 84.3476 157.626 87.2561Z" fill="white"/>
<path d="M177.679 87.2561C177.679 90.601 176.205 92.9278 173.403 92.9278C172.223 92.9278 171.191 92.4915 170.454 91.619V96.8543L168.685 96.9998V81.8753H170.159L170.307 83.3296C171.191 82.1662 172.223 81.5845 173.55 81.5845C176.499 81.5845 177.679 83.7659 177.679 87.2561ZM175.762 87.2561C175.762 84.3476 174.878 83.0387 173.108 83.0387C171.928 83.0387 171.044 83.9113 170.307 84.7839V90.1647C170.896 91.0373 171.781 91.619 172.813 91.619C174.877 91.4735 175.762 90.1647 175.762 87.2561Z" fill="white"/>
<path d="M190.801 92.7821C190.064 95.1089 188.737 96.7086 185.788 96.9995L185.641 95.6906C187.852 95.2543 188.442 94.3818 189.179 92.6366H188.59L184.903 81.875H186.82L189.917 91.4732L192.866 81.875H194.635L190.801 92.7821Z" fill="white"/>
<path d="M205.4 87.2561C205.4 90.601 203.63 92.9278 200.534 92.9278C197.437 92.9278 195.668 90.7464 195.668 87.2561C195.668 83.9113 197.437 81.5845 200.534 81.5845C203.63 81.5845 205.4 83.7659 205.4 87.2561ZM197.585 87.2561C197.585 90.1647 198.617 91.4736 200.534 91.4736C202.451 91.4736 203.483 90.1647 203.483 87.2561C203.483 84.3476 202.451 83.0387 200.534 83.0387C198.617 83.0387 197.585 84.3476 197.585 87.2561Z" fill="white"/>
<path d="M216.753 92.6366H215.279L215.131 90.8915C214.247 92.2003 213.215 92.9275 211.74 92.9275C209.823 92.9275 208.644 91.7641 208.644 89.5827V81.875H210.413V89.4372C210.413 91.0369 211.003 91.6186 212.182 91.6186C213.362 91.6186 214.394 90.7461 214.984 89.7281V82.0204H216.753V92.6366V92.6366Z" fill="white"/>
<path d="M226.485 81.7302L226.19 83.4753C225.895 83.3299 225.6 83.3299 225.158 83.3299C223.683 83.3299 222.946 84.3479 222.504 86.3838V92.6372H220.734V81.8756H222.209L222.356 84.2024C222.946 82.6027 223.978 81.7302 225.305 81.7302C225.748 81.5847 226.19 81.7302 226.485 81.7302Z" fill="white"/>
<path d="M241.525 82.7479L240.64 83.9113C239.903 83.3296 239.166 83.0387 238.281 83.0387C236.512 83.0387 235.332 84.3476 235.332 87.2561C235.332 90.1647 236.512 91.3281 238.281 91.3281C239.166 91.3281 239.903 91.0372 240.64 90.4555L241.525 91.619C240.64 92.3461 239.461 92.7824 238.281 92.7824C235.332 92.7824 233.562 90.7464 233.562 87.2561C233.562 83.7659 235.332 81.5845 238.281 81.5845C239.608 81.5845 240.64 82.0208 241.525 82.7479Z" fill="white"/>
<path d="M252.437 91.7644L251.995 92.9278C250.962 92.7824 250.225 92.3461 249.93 91.3281C249.193 92.4915 248.013 92.9278 246.686 92.9278C244.475 92.9278 243.295 91.619 243.295 89.583C243.295 87.2562 245.064 86.0927 248.013 86.0927H249.783V85.2202C249.783 83.6205 249.046 83.0387 247.424 83.0387C246.539 83.0387 245.654 83.1842 244.475 83.6205L244.032 82.3116C245.359 81.8753 246.539 81.5845 247.718 81.5845C250.373 81.5845 251.552 82.8933 251.552 85.0747V90.1647C251.552 91.1827 251.847 91.4735 252.437 91.7644ZM249.783 89.8739V87.2561H248.161C246.097 87.2561 245.064 87.9833 245.064 89.583C245.064 90.8918 245.802 91.619 247.129 91.619C248.308 91.619 249.193 91.0373 249.783 89.8739Z" fill="white"/>
<path d="M261.284 81.7302L260.989 83.4753C260.694 83.3299 260.399 83.3299 259.957 83.3299C258.482 83.3299 257.745 84.3479 257.303 86.3838V92.6372H255.533V81.8756H257.008L257.155 84.2024C257.745 82.6027 258.777 81.7302 260.104 81.7302C260.546 81.5847 260.989 81.7302 261.284 81.7302Z" fill="white"/>
<path d="M271.457 87.8378H264.38C264.527 90.4555 265.854 91.4735 267.476 91.4735C268.656 91.4735 269.393 91.1826 270.425 90.4555L271.162 91.4735C270.13 92.346 268.951 92.7823 267.329 92.7823C264.232 92.7823 262.463 90.6009 262.463 87.2561C262.463 83.9112 264.232 81.439 267.034 81.439C269.983 81.439 271.457 83.475 271.457 86.8198C271.605 87.2561 271.605 87.6923 271.457 87.8378ZM269.835 86.3835C269.835 84.2021 268.951 82.8932 267.181 82.8932C265.707 82.8932 264.675 83.9112 264.527 86.5289H269.983V86.3835H269.835Z" fill="white"/>
<path d="M282.958 87.8378H275.881C276.028 90.4555 277.355 91.4735 278.977 91.4735C280.157 91.4735 280.894 91.1826 281.926 90.4555L282.664 91.4735C281.631 92.346 280.452 92.7823 278.83 92.7823C275.733 92.7823 273.964 90.6009 273.964 87.2561C273.964 83.9112 275.733 81.439 278.535 81.439C281.484 81.439 282.958 83.475 282.958 86.8198C282.958 87.2561 282.958 87.6923 282.958 87.8378ZM281.189 86.3835C281.189 84.2021 280.304 82.8932 278.535 82.8932C277.06 82.8932 276.028 83.9112 275.881 86.5289H281.336V86.3835H281.189Z" fill="white"/>
<path d="M291.954 81.7302L291.659 83.4753C291.364 83.3299 291.069 83.3299 290.627 83.3299C289.152 83.3299 288.415 84.3479 287.973 86.3838V92.6372H286.203V81.8756H287.678L287.825 84.2024C288.415 82.6027 289.447 81.7302 290.774 81.7302C291.216 81.5847 291.659 81.7302 291.954 81.7302Z" fill="white"/>
</g>
<path d="M62.2252 36.066V59.0435L42.0244 70.5323V93.0735L81.9837 70.2414V24.7227L62.2252 36.066Z" fill="white"/>
<path d="M40.9915 0L1.03223 22.8321L20.7907 34.03L40.9915 22.5412L61.0449 34.03L80.9508 22.8321L40.9915 0Z" fill="white"/>
<path d="M1.03223 0H20.7907V7.56222L1.03223 18.6147V0Z" fill="white"/>
<path d="M81.6882 93.0733H61.9297V85.6565L81.6882 74.604V93.0733Z" fill="white"/>
<path d="M19.7585 59.0436V36.0661L0 24.8682V70.2415L39.9593 93.0735V70.5323L19.7585 59.0436Z" fill="white"/>
</svg>
